<?xml version="1.0" encoding="utf-8" standalone="no"?>
<!DOCTYPE svg PUBLIC "-//W3C//DTD SVG 1.1//EN"
  "http://www.w3.org/Graphics/SVG/1.1/DTD/svg11.dtd">
<svg xmlns:xlink="http://www.w3.org/1999/xlink" width="108pt" height="144pt" viewBox="0 0 108 144" xmlns="http://www.w3.org/2000/svg" version="1.1">
 <metadata>
  <rdf:RDF xmlns:dc="http://purl.org/dc/elements/1.1/" xmlns:cc="http://creativecommons.org/ns#" xmlns:rdf="http://www.w3.org/1999/02/22-rdf-syntax-ns#">
   <cc:Work>
    <dc:type rdf:resource="http://purl.org/dc/dcmitype/StillImage"/>
    <dc:date>2024-03-15T16:02:05.365422</dc:date>
    <dc:format>image/svg+xml</dc:format>
    <dc:creator>
     <cc:Agent>
      <dc:title>Matplotlib v3.7.2, https://matplotlib.org/</dc:title>
     </cc:Agent>
    </dc:creator>
   </cc:Work>
  </rdf:RDF>
 </metadata>
 <defs>
  <style type="text/css">*{stroke-linejoin: round; stroke-linecap: butt}</style>
 </defs>
 <g id="figure_1">
  <g id="patch_1">
   <path d="M 0 144 
L 108 144 
L 108 0 
L 0 0 
z
" style="fill: #ffffff"/>
  </g>
  <g id="axes_1">
   <g id="patch_2">
    <path d="M 24.175 35.702317 
L 97.2 35.702317 
L 97.2 13.346524 
L 24.175 13.346524 
z
" style="fill: #ffffff"/>
   </g>
   <g id="matplotlib.axis_1">
    <g id="xtick_1">
     <g id="line2d_1">
      <defs>
       <path id="m6432f4de1e" d="M 0 0 
L 0 3.5 
" style="stroke: #000000; stroke-width: 0.8"/>
      </defs>
      <g>
       <use xlink:href="#m6432f4de1e" x="42.43125" y="35.702317" style="stroke: #000000; stroke-width: 0.8"/>
      </g>
     </g>
    </g>
    <g id="xtick_2">
     <g id="line2d_2">
      <g>
       <use xlink:href="#m6432f4de1e" x="78.94375" y="35.702317" style="stroke: #000000; stroke-width: 0.8"/>
      </g>
     </g>
    </g>
   </g>
   <g id="matplotlib.axis_2">
    <g id="ytick_1">
     <g id="line2d_3">
      <defs>
       <path id="m6f1c18fe68" d="M 0 0 
L -3.5 0 
" style="stroke: #000000; stroke-width: 0.8"/>
      </defs>
      <g>
       <use xlink:href="#m6f1c18fe68" x="24.175" y="34.686145" style="stroke: #000000; stroke-width: 0.8"/>
      </g>
     </g>
     <g id="text_1">
      <!-- 0 -->
      <g transform="translate(10.8125 38.485364) scale(0.1 -0.1)">
       <defs>
        <path id="DejaVuSans-30" d="M 2034 4250 
Q 1547 4250 1301 3770 
Q 1056 3291 1056 2328 
Q 1056 1369 1301 889 
Q 1547 409 2034 409 
Q 2525 409 2770 889 
Q 3016 1369 3016 2328 
Q 3016 3291 2770 3770 
Q 2525 4250 2034 4250 
z
M 2034 4750 
Q 2819 4750 3233 4129 
Q 3647 3509 3647 2328 
Q 3647 1150 3233 529 
Q 2819 -91 2034 -91 
Q 1250 -91 836 529 
Q 422 1150 422 2328 
Q 422 3509 836 4129 
Q 1250 4750 2034 4750 
z
" transform="scale(0.015625)"/>
       </defs>
       <use xlink:href="#DejaVuSans-30"/>
      </g>
     </g>
    </g>
    <g id="ytick_2">
     <g id="line2d_4">
      <g>
       <use xlink:href="#m6f1c18fe68" x="24.175" y="14.362696" style="stroke: #000000; stroke-width: 0.8"/>
      </g>
     </g>
     <g id="text_2">
      <!-- 1 -->
      <g transform="translate(10.8125 18.161915) scale(0.1 -0.1)">
       <defs>
        <path id="DejaVuSans-31" d="M 794 531 
L 1825 531 
L 1825 4091 
L 703 3866 
L 703 4441 
L 1819 4666 
L 2450 4666 
L 2450 531 
L 3481 531 
L 3481 0 
L 794 0 
L 794 531 
z
" transform="scale(0.015625)"/>
       </defs>
       <use xlink:href="#DejaVuSans-31"/>
      </g>
     </g>
    </g>
   </g>
   <g id="line2d_5">
    <path d="M 24.175 14.322508 
L 24.90525 14.321318 
L 25.6355 14.321556 
L 26.36575 14.327511 
L 27.096 14.327748 
L 27.82625 14.325779 
L 28.5565 14.326096 
L 29.28675 14.326411 
L 30.017 14.326806 
L 30.74725 14.331336 
L 31.4775 14.331731 
L 32.20775 14.332126 
L 32.938 14.330082 
L 33.66825 14.330554 
L 34.3985 14.330212 
L 35.12875 14.3349 
L 35.859 14.335453 
L 36.58925 14.335145 
L 37.3195 14.33435 
L 38.04975 14.333636 
L 38.78 14.339988 
L 39.51025 14.339273 
L 40.2405 14.340061 
L 40.97075 14.339426 
L 41.701 14.344104 
L 42.43125 14.343625 
L 43.1615 14.351484 
L 43.89175 14.351084 
L 44.622 14.350205 
L 45.35225 14.355191 
L 46.0825 14.353444 
L 46.81275 14.357987 
L 47.543 14.35538 
L 48.27325 14.360218 
L 49.0035 14.360836 
L 49.73375 14.364653 
L 50.464 14.365114 
L 51.19425 14.367956 
L 51.9245 14.364472 
L 52.65475 14.372309 
L 53.385 14.367515 
L 54.11525 14.363773 
L 54.8455 14.360761 
L 55.57575 14.355966 
L 56.306 14.354886 
L 57.03625 14.356017 
L 57.7665 14.351639 
L 58.49675 14.348131 
L 59.227 14.371784 
L 59.95725 14.679875 
L 60.6875 19.05129 
L 61.41775 32.802747 
L 62.148 32.841153 
L 62.87825 32.589376 
L 63.6085 32.430381 
L 64.33875 32.360466 
L 65.069 32.327468 
L 65.79925 32.307623 
L 66.5295 32.29261 
L 67.25975 32.288392 
L 67.99 32.280479 
L 68.72025 32.278628 
L 69.4505 32.27386 
L 70.18075 32.270405 
L 70.911 32.26697 
L 71.64125 32.264683 
L 72.3715 32.262861 
L 73.10175 32.26045 
L 73.832 32.254691 
L 74.56225 32.249829 
L 75.2925 32.244676 
L 76.02275 32.240504 
L 76.753 32.238221 
L 77.48325 32.232661 
L 78.2135 32.22548 
L 78.94375 32.219918 
L 79.674 32.211334 
L 80.40425 32.206098 
L 81.1345 32.198711 
L 81.86475 32.192698 
L 82.595 32.184155 
L 83.32525 32.176509 
L 84.0555 32.169035 
L 84.78575 32.161399 
L 85.516 32.151945 
L 86.24625 32.139676 
L 86.9765 32.131832 
L 87.70675 32.126145 
L 88.437 32.115854 
L 89.16725 32.108365 
L 89.8975 32.102955 
L 90.62775 32.095023 
L 91.358 32.084976 
L 92.08825 32.077419 
L 92.8185 32.0708 
L 93.54875 32.062909 
L 94.279 32.058168 
L 95.00925 32.052978 
L 95.7395 32.046398 
L 96.46975 32.038922 
L 97.2 32.035038 
" clip-path="url(#p19287e4618)" style="fill: none; stroke: #1f77b4; stroke-width: 3; stroke-linecap: square"/>
   </g>
   <g id="line2d_6">
    <path d="M 24.175 14.362696 
L 24.90525 14.362696 
L 25.6355 14.362696 
L 26.36575 14.362696 
L 27.096 14.362696 
L 27.82625 14.362696 
L 28.5565 14.362696 
L 29.28675 14.362696 
L 30.017 14.362696 
L 30.74725 14.362696 
L 31.4775 14.362696 
L 32.20775 14.362696 
L 32.938 14.362696 
L 33.66825 14.362696 
L 34.3985 14.362696 
L 35.12875 14.362696 
L 35.859 14.362696 
L 36.58925 14.362696 
L 37.3195 14.362696 
L 38.04975 14.362696 
L 38.78 14.362696 
L 39.51025 14.362696 
L 40.2405 14.362696 
L 40.97075 14.362696 
L 41.701 14.362696 
L 42.43125 14.362696 
L 43.1615 14.362696 
L 43.89175 14.362696 
L 44.622 14.362696 
L 45.35225 14.362696 
L 46.0825 14.362696 
L 46.81275 14.362696 
L 47.543 14.362696 
L 48.27325 14.362696 
L 49.0035 14.362696 
L 49.73375 14.362696 
L 50.464 14.362696 
L 51.19425 14.362696 
L 51.9245 14.362696 
L 52.65475 14.362696 
L 53.385 14.362696 
L 54.11525 14.362696 
L 54.8455 14.362696 
L 55.57575 14.362696 
L 56.306 14.362696 
L 57.03625 14.362696 
L 57.7665 14.362696 
L 58.49675 14.362696 
L 59.227 14.362696 
L 59.95725 14.362696 
L 60.6875 32.145714 
L 61.41775 32.145714 
L 62.148 32.145714 
L 62.87825 32.145714 
L 63.6085 32.145714 
L 64.33875 32.145714 
L 65.069 32.145714 
L 65.79925 32.145714 
L 66.5295 32.145714 
L 67.25975 32.145714 
L 67.99 32.145714 
L 68.72025 32.145714 
L 69.4505 32.145714 
L 70.18075 32.145714 
L 70.911 32.145714 
L 71.64125 32.145714 
L 72.3715 32.145714 
L 73.10175 32.145714 
L 73.832 32.145714 
L 74.56225 32.145714 
L 75.2925 32.145714 
L 76.02275 32.145714 
L 76.753 32.145714 
L 77.48325 32.145714 
L 78.2135 32.145714 
L 78.94375 32.145714 
L 79.674 32.145714 
L 80.40425 32.145714 
L 81.1345 32.145714 
L 81.86475 32.145714 
L 82.595 32.145714 
L 83.32525 32.145714 
L 84.0555 32.145714 
L 84.78575 32.145714 
L 85.516 32.145714 
L 86.24625 32.145714 
L 86.9765 32.145714 
L 87.70675 32.145714 
L 88.437 32.145714 
L 89.16725 32.145714 
L 89.8975 32.145714 
L 90.62775 32.145714 
L 91.358 32.145714 
L 92.08825 32.145714 
L 92.8185 32.145714 
L 93.54875 32.145714 
L 94.279 32.145714 
L 95.00925 32.145714 
L 95.7395 32.145714 
L 96.46975 32.145714 
L 97.2 32.145714 
" clip-path="url(#p19287e4618)" style="fill: none; stroke-dasharray: 5.55,2.4; stroke-dashoffset: 0; stroke: #000000; stroke-width: 1.5"/>
   </g>
   <g id="patch_3">
    <path d="M 24.175 35.702317 
L 24.175 13.346524 
" style="fill: none; stroke: #000000; stroke-width: 0.8; stroke-linejoin: miter; stroke-linecap: square"/>
   </g>
   <g id="patch_4">
    <path d="M 24.175 35.702317 
L 97.2 35.702317 
" style="fill: none; stroke: #000000; stroke-width: 0.8; stroke-linejoin: miter; stroke-linecap: square"/>
   </g>
  </g>
  <g id="axes_2">
   <g id="patch_5">
    <path d="M 24.175 75.951159 
L 97.2 75.951159 
L 97.2 53.595365 
L 24.175 53.595365 
z
" style="fill: #ffffff"/>
   </g>
   <g id="matplotlib.axis_3">
    <g id="xtick_3">
     <g id="line2d_7">
      <g>
       <use xlink:href="#m6432f4de1e" x="42.43125" y="75.951159" style="stroke: #000000; stroke-width: 0.8"/>
      </g>
     </g>
    </g>
    <g id="xtick_4">
     <g id="line2d_8">
      <g>
       <use xlink:href="#m6432f4de1e" x="78.94375" y="75.951159" style="stroke: #000000; stroke-width: 0.8"/>
      </g>
     </g>
    </g>
   </g>
   <g id="matplotlib.axis_4">
    <g id="ytick_3">
     <g id="line2d_9">
      <g>
       <use xlink:href="#m6f1c18fe68" x="24.175" y="74.934986" style="stroke: #000000; stroke-width: 0.8"/>
      </g>
     </g>
     <g id="text_3">
      <!-- 0 -->
      <g transform="translate(10.8125 78.734205) scale(0.1 -0.1)">
       <use xlink:href="#DejaVuSans-30"/>
      </g>
     </g>
    </g>
    <g id="ytick_4">
     <g id="line2d_10">
      <g>
       <use xlink:href="#m6f1c18fe68" x="24.175" y="54.611538" style="stroke: #000000; stroke-width: 0.8"/>
      </g>
     </g>
     <g id="text_4">
      <!-- 1 -->
      <g transform="translate(10.8125 58.410757) scale(0.1 -0.1)">
       <use xlink:href="#DejaVuSans-31"/>
      </g>
     </g>
    </g>
   </g>
   <g id="line2d_11">
    <path d="M 24.175 74.975283 
L 24.90525 74.976259 
L 25.6355 74.975974 
L 26.36575 74.971215 
L 27.096 74.970929 
L 27.82625 74.972848 
L 28.5565 74.972468 
L 29.28675 74.972088 
L 30.017 74.971613 
L 30.74725 74.968114 
L 31.4775 74.967639 
L 32.20775 74.967165 
L 32.938 74.968 
L 33.66825 74.967431 
L 34.3985 74.961229 
L 35.12875 74.957541 
L 35.859 74.956875 
L 36.58925 74.957248 
L 37.3195 74.95775 
L 38.04975 74.958159 
L 38.78 74.952924 
L 39.51025 74.953331 
L 40.2405 74.952381 
L 40.97075 74.952696 
L 41.701 74.949537 
L 42.43125 74.949663 
L 43.1615 74.946096 
L 43.89175 74.946125 
L 44.622 74.947252 
L 45.35225 74.936076 
L 46.0825 74.937273 
L 46.81275 74.934646 
L 47.543 74.936878 
L 48.27325 74.933532 
L 49.0035 74.928691 
L 49.73375 74.925602 
L 50.464 74.924594 
L 51.19425 74.916066 
L 51.9245 74.918906 
L 52.65475 74.914031 
L 53.385 74.927846 
L 54.11525 74.929664 
L 54.8455 74.930534 
L 55.57575 74.932739 
L 56.306 74.955444 
L 57.03625 74.963805 
L 57.7665 74.975504 
L 58.49675 75.011004 
L 59.227 75.105389 
L 59.95725 75.314224 
L 60.6875 71.016789 
L 61.41775 75.946867 
L 62.148 74.419116 
L 62.87825 74.478476 
L 63.6085 74.604546 
L 64.33875 74.691138 
L 65.069 74.745104 
L 65.79925 74.780023 
L 66.5295 74.797049 
L 67.25975 74.816368 
L 67.99 74.8192 
L 68.72025 74.824052 
L 69.4505 74.827893 
L 70.18075 74.829789 
L 70.911 74.839632 
L 71.64125 74.839034 
L 72.3715 74.844525 
L 73.10175 74.852403 
L 73.832 74.851306 
L 74.56225 74.846751 
L 75.2925 74.845293 
L 76.02275 74.842742 
L 76.753 74.85062 
L 77.48325 74.849285 
L 78.2135 74.854818 
L 78.94375 74.853487 
L 79.674 74.852368 
L 80.40425 74.859346 
L 81.1345 74.856427 
L 81.86475 74.86049 
L 82.595 74.859322 
L 83.32525 74.856192 
L 84.0555 74.862451 
L 84.78575 74.859463 
L 85.516 74.854285 
L 86.24625 74.836878 
L 86.9765 74.843211 
L 87.70675 74.838692 
L 88.437 74.834964 
L 89.16725 74.831647 
L 89.8975 74.832634 
L 90.62775 74.830367 
L 91.358 74.835047 
L 92.08825 74.831964 
L 92.8185 74.827751 
L 93.54875 74.825435 
L 94.279 74.822902 
L 95.00925 74.817424 
L 95.7395 74.81228 
L 96.46975 74.8091 
L 97.2 74.805534 
" clip-path="url(#p6a76f4ad7e)" style="fill: none; stroke: #1f77b4; stroke-width: 3; stroke-linecap: square"/>
   </g>
   <g id="line2d_12">
    <path d="M 24.175 74.934986 
L 24.90525 74.934986 
L 25.6355 74.934986 
L 26.36575 74.934986 
L 27.096 74.934986 
L 27.82625 74.934986 
L 28.5565 74.934986 
L 29.28675 74.934986 
L 30.017 74.934986 
L 30.74725 74.934986 
L 31.4775 74.934986 
L 32.20775 74.934986 
L 32.938 74.934986 
L 33.66825 74.934986 
L 34.3985 74.934986 
L 35.12875 74.934986 
L 35.859 74.934986 
L 36.58925 74.934986 
L 37.3195 74.934986 
L 38.04975 74.934986 
L 38.78 74.934986 
L 39.51025 74.934986 
L 40.2405 74.934986 
L 40.97075 74.934986 
L 41.701 74.934986 
L 42.43125 74.934986 
L 43.1615 74.934986 
L 43.89175 74.934986 
L 44.622 74.934986 
L 45.35225 74.934986 
L 46.0825 74.934986 
L 46.81275 74.934986 
L 47.543 74.934986 
L 48.27325 74.934986 
L 49.0035 74.934986 
L 49.73375 74.934986 
L 50.464 74.934986 
L 51.19425 74.934986 
L 51.9245 74.934986 
L 52.65475 74.934986 
L 53.385 74.934986 
L 54.11525 74.934986 
L 54.8455 74.934986 
L 55.57575 74.934986 
L 56.306 74.934986 
L 57.03625 74.934986 
L 57.7665 74.934986 
L 58.49675 74.934986 
L 59.227 74.934986 
L 59.95725 74.934986 
L 60.6875 74.934986 
L 61.41775 74.934986 
L 62.148 74.934986 
L 62.87825 74.934986 
L 63.6085 74.934986 
L 64.33875 74.934986 
L 65.069 74.934986 
L 65.79925 74.934986 
L 66.5295 74.934986 
L 67.25975 74.934986 
L 67.99 74.934986 
L 68.72025 74.934986 
L 69.4505 74.934986 
L 70.18075 74.934986 
L 70.911 74.934986 
L 71.64125 74.934986 
L 72.3715 74.934986 
L 73.10175 74.934986 
L 73.832 74.934986 
L 74.56225 74.934986 
L 75.2925 74.934986 
L 76.02275 74.934986 
L 76.753 74.934986 
L 77.48325 74.934986 
L 78.2135 74.934986 
L 78.94375 74.934986 
L 79.674 74.934986 
L 80.40425 74.934986 
L 81.1345 74.934986 
L 81.86475 74.934986 
L 82.595 74.934986 
L 83.32525 74.934986 
L 84.0555 74.934986 
L 84.78575 74.934986 
L 85.516 74.934986 
L 86.24625 74.934986 
L 86.9765 74.934986 
L 87.70675 74.934986 
L 88.437 74.934986 
L 89.16725 74.934986 
L 89.8975 74.934986 
L 90.62775 74.934986 
L 91.358 74.934986 
L 92.08825 74.934986 
L 92.8185 74.934986 
L 93.54875 74.934986 
L 94.279 74.934986 
L 95.00925 74.934986 
L 95.7395 74.934986 
L 96.46975 74.934986 
L 97.2 74.934986 
" clip-path="url(#p6a76f4ad7e)" style="fill: none; stroke-dasharray: 5.55,2.4; stroke-dashoffset: 0; stroke: #000000; stroke-width: 1.5"/>
   </g>
   <g id="patch_6">
    <path d="M 24.175 75.951159 
L 24.175 53.595365 
" style="fill: none; stroke: #000000; stroke-width: 0.8; stroke-linejoin: miter; stroke-linecap: square"/>
   </g>
   <g id="patch_7">
    <path d="M 24.175 75.951159 
L 97.2 75.951159 
" style="fill: none; stroke: #000000; stroke-width: 0.8; stroke-linejoin: miter; stroke-linecap: square"/>
   </g>
  </g>
  <g id="axes_3">
   <g id="patch_8">
    <path d="M 24.175 116.2 
L 97.2 116.2 
L 97.2 93.844207 
L 24.175 93.844207 
z
" style="fill: #ffffff"/>
   </g>
   <g id="matplotlib.axis_5">
    <g id="xtick_5">
     <g id="line2d_13">
      <g>
       <use xlink:href="#m6432f4de1e" x="42.43125" y="116.2" style="stroke: #000000; stroke-width: 0.8"/>
      </g>
     </g>
     <g id="text_5">
      <!-- 0 -->
      <g transform="translate(39.25 130.798438) scale(0.1 -0.1)">
       <use xlink:href="#DejaVuSans-30"/>
      </g>
     </g>
    </g>
    <g id="xtick_6">
     <g id="line2d_14">
      <g>
       <use xlink:href="#m6432f4de1e" x="78.94375" y="116.2" style="stroke: #000000; stroke-width: 0.8"/>
      </g>
     </g>
     <g id="text_6">
      <!-- 1 -->
      <g transform="translate(75.7625 130.798438) scale(0.1 -0.1)">
       <use xlink:href="#DejaVuSans-31"/>
      </g>
     </g>
    </g>
   </g>
   <g id="matplotlib.axis_6">
    <g id="ytick_5">
     <g id="line2d_15">
      <g>
       <use xlink:href="#m6f1c18fe68" x="24.175" y="115.183828" style="stroke: #000000; stroke-width: 0.8"/>
      </g>
     </g>
     <g id="text_7">
      <!-- 0 -->
      <g transform="translate(10.8125 118.983046) scale(0.1 -0.1)">
       <use xlink:href="#DejaVuSans-30"/>
      </g>
     </g>
    </g>
    <g id="ytick_6">
     <g id="line2d_16">
      <g>
       <use xlink:href="#m6f1c18fe68" x="24.175" y="94.860379" style="stroke: #000000; stroke-width: 0.8"/>
      </g>
     </g>
     <g id="text_8">
      <!-- 1 -->
      <g transform="translate(10.8125 98.659598) scale(0.1 -0.1)">
       <use xlink:href="#DejaVuSans-31"/>
      </g>
     </g>
    </g>
   </g>
   <g id="line2d_17">
    <path d="M 24.175 94.839912 
L 24.90525 94.839161 
L 25.6355 94.839154 
L 26.36575 94.843745 
L 27.096 94.84374 
L 27.82625 94.840942 
L 28.5565 94.840934 
L 29.28675 94.840925 
L 30.017 94.840912 
L 30.74725 94.844762 
L 31.4775 94.84475 
L 32.20775 94.844738 
L 32.938 94.843694 
L 33.66825 94.843679 
L 34.3985 94.841763 
L 35.12875 94.845605 
L 35.859 94.845588 
L 36.58925 94.843534 
L 37.3195 94.842771 
L 38.04975 94.842003 
L 38.78 94.846587 
L 39.51025 94.845819 
L 40.2405 94.845797 
L 40.97075 94.845029 
L 41.701 94.847873 
L 42.43125 94.8471 
L 43.1615 94.85283 
L 43.89175 94.852052 
L 44.622 94.850293 
L 45.35225 94.853201 
L 46.0825 94.851677 
L 46.81275 94.853937 
L 47.543 94.850371 
L 48.27325 94.853215 
L 49.0035 94.85267 
L 49.73375 94.855754 
L 50.464 94.857021 
L 51.19425 94.858208 
L 51.9245 94.855943 
L 52.65475 94.864544 
L 53.385 94.862042 
L 54.11525 94.862654 
L 54.8455 94.862968 
L 55.57575 94.862425 
L 56.306 94.861219 
L 57.03625 94.860294 
L 57.7665 94.853075 
L 58.49675 94.842371 
L 59.227 94.849043 
L 59.95725 95.071846 
L 60.6875 99.244734 
L 61.41775 113.973554 
L 62.148 113.752026 
L 62.87825 113.527625 
L 63.6085 113.384684 
L 64.33875 113.312466 
L 65.069 113.2708 
L 65.79925 113.247251 
L 66.5295 113.232684 
L 67.25975 113.22397 
L 67.99 113.217472 
L 68.72025 113.217737 
L 69.4505 113.214829 
L 70.18075 113.214532 
L 70.911 113.21224 
L 71.64125 113.213688 
L 72.3715 113.209815 
L 73.10175 113.208677 
L 73.832 113.205301 
L 74.56225 113.20234 
L 75.2925 113.20042 
L 76.02275 113.19779 
L 76.753 113.19624 
L 77.48325 113.192858 
L 78.2135 113.188095 
L 78.94375 113.184711 
L 79.674 113.178445 
L 80.40425 113.173942 
L 81.1345 113.170298 
L 81.86475 113.165221 
L 82.595 113.158952 
L 83.32525 113.15425 
L 84.0555 113.148902 
L 84.78575 113.143793 
L 85.516 113.137146 
L 86.24625 113.129711 
L 86.9765 113.122897 
L 87.70675 113.119995 
L 88.437 113.112985 
L 89.16725 113.108276 
L 89.8975 113.101926 
L 90.62775 113.096233 
L 91.358 113.088103 
L 92.08825 113.082991 
L 92.8185 113.079916 
L 93.54875 113.074218 
L 94.279 113.071002 
L 95.00925 113.068672 
L 95.7395 113.065124 
L 96.46975 113.060009 
L 97.2 113.058829 
" clip-path="url(#p1a739623ee)" style="fill: none; stroke: #1f77b4; stroke-width: 3; stroke-linecap: square"/>
   </g>
   <g id="line2d_18">
    <path d="M 24.175 94.860379 
L 24.90525 94.860379 
L 25.6355 94.860379 
L 26.36575 94.860379 
L 27.096 94.860379 
L 27.82625 94.860379 
L 28.5565 94.860379 
L 29.28675 94.860379 
L 30.017 94.860379 
L 30.74725 94.860379 
L 31.4775 94.860379 
L 32.20775 94.860379 
L 32.938 94.860379 
L 33.66825 94.860379 
L 34.3985 94.860379 
L 35.12875 94.860379 
L 35.859 94.860379 
L 36.58925 94.860379 
L 37.3195 94.860379 
L 38.04975 94.860379 
L 38.78 94.860379 
L 39.51025 94.860379 
L 40.2405 94.860379 
L 40.97075 94.860379 
L 41.701 94.860379 
L 42.43125 94.860379 
L 43.1615 94.860379 
L 43.89175 94.860379 
L 44.622 94.860379 
L 45.35225 94.860379 
L 46.0825 94.860379 
L 46.81275 94.860379 
L 47.543 94.860379 
L 48.27325 94.860379 
L 49.0035 94.860379 
L 49.73375 94.860379 
L 50.464 94.860379 
L 51.19425 94.860379 
L 51.9245 94.860379 
L 52.65475 94.860379 
L 53.385 94.860379 
L 54.11525 94.860379 
L 54.8455 94.860379 
L 55.57575 94.860379 
L 56.306 94.860379 
L 57.03625 94.860379 
L 57.7665 94.860379 
L 58.49675 94.860379 
L 59.227 94.860379 
L 59.95725 94.860379 
L 60.6875 113.151483 
L 61.41775 113.151483 
L 62.148 113.151483 
L 62.87825 113.151483 
L 63.6085 113.151483 
L 64.33875 113.151483 
L 65.069 113.151483 
L 65.79925 113.151483 
L 66.5295 113.151483 
L 67.25975 113.151483 
L 67.99 113.151483 
L 68.72025 113.151483 
L 69.4505 113.151483 
L 70.18075 113.151483 
L 70.911 113.151483 
L 71.64125 113.151483 
L 72.3715 113.151483 
L 73.10175 113.151483 
L 73.832 113.151483 
L 74.56225 113.151483 
L 75.2925 113.151483 
L 76.02275 113.151483 
L 76.753 113.151483 
L 77.48325 113.151483 
L 78.2135 113.151483 
L 78.94375 113.151483 
L 79.674 113.151483 
L 80.40425 113.151483 
L 81.1345 113.151483 
L 81.86475 113.151483 
L 82.595 113.151483 
L 83.32525 113.151483 
L 84.0555 113.151483 
L 84.78575 113.151483 
L 85.516 113.151483 
L 86.24625 113.151483 
L 86.9765 113.151483 
L 87.70675 113.151483 
L 88.437 113.151483 
L 89.16725 113.151483 
L 89.8975 113.151483 
L 90.62775 113.151483 
L 91.358 113.151483 
L 92.08825 113.151483 
L 92.8185 113.151483 
L 93.54875 113.151483 
L 94.279 113.151483 
L 95.00925 113.151483 
L 95.7395 113.151483 
L 96.46975 113.151483 
L 97.2 113.151483 
" clip-path="url(#p1a739623ee)" style="fill: none; stroke-dasharray: 5.55,2.4; stroke-dashoffset: 0; stroke: #000000; stroke-width: 1.5"/>
   </g>
   <g id="patch_9">
    <path d="M 24.175 116.2 
L 24.175 93.844207 
" style="fill: none; stroke: #000000; stroke-width: 0.8; stroke-linejoin: miter; stroke-linecap: square"/>
   </g>
   <g id="patch_10">
    <path d="M 24.175 116.2 
L 97.2 116.2 
" style="fill: none; stroke: #000000; stroke-width: 0.8; stroke-linejoin: miter; stroke-linecap: square"/>
   </g>
  </g>
 </g>
 <defs>
  <clipPath id="p19287e4618">
   <rect x="24.175" y="13.346524" width="73.025" height="22.355793"/>
  </clipPath>
  <clipPath id="p6a76f4ad7e">
   <rect x="24.175" y="53.595365" width="73.025" height="22.355793"/>
  </clipPath>
  <clipPath id="p1a739623ee">
   <rect x="24.175" y="93.844207" width="73.025" height="22.355793"/>
  </clipPath>
 </defs>
</svg>
