<?xml version="1.0" encoding="utf-8" standalone="no"?>
<!DOCTYPE svg PUBLIC "-//W3C//DTD SVG 1.1//EN"
  "http://www.w3.org/Graphics/SVG/1.1/DTD/svg11.dtd">
<svg xmlns:xlink="http://www.w3.org/1999/xlink" width="108pt" height="144pt" viewBox="0 0 108 144" xmlns="http://www.w3.org/2000/svg" version="1.1">
 <metadata>
  <rdf:RDF xmlns:dc="http://purl.org/dc/elements/1.1/" xmlns:cc="http://creativecommons.org/ns#" xmlns:rdf="http://www.w3.org/1999/02/22-rdf-syntax-ns#">
   <cc:Work>
    <dc:type rdf:resource="http://purl.org/dc/dcmitype/StillImage"/>
    <dc:date>2024-03-15T16:02:05.632485</dc:date>
    <dc:format>image/svg+xml</dc:format>
    <dc:creator>
     <cc:Agent>
      <dc:title>Matplotlib v3.7.2, https://matplotlib.org/</dc:title>
     </cc:Agent>
    </dc:creator>
   </cc:Work>
  </rdf:RDF>
 </metadata>
 <defs>
  <style type="text/css">*{stroke-linejoin: round; stroke-linecap: butt}</style>
 </defs>
 <g id="figure_1">
  <g id="patch_1">
   <path d="M 0 144 
L 108 144 
L 108 0 
L 0 0 
z
" style="fill: #ffffff"/>
  </g>
  <g id="axes_1">
   <g id="patch_2">
    <path d="M 24.175 35.702317 
L 97.2 35.702317 
L 97.2 13.346524 
L 24.175 13.346524 
z
" style="fill: #ffffff"/>
   </g>
   <g id="matplotlib.axis_1">
    <g id="xtick_1">
     <g id="line2d_1">
      <defs>
       <path id="me28bf25de3" d="M 0 0 
L 0 3.5 
" style="stroke: #000000; stroke-width: 0.8"/>
      </defs>
      <g>
       <use xlink:href="#me28bf25de3" x="42.43125" y="35.702317" style="stroke: #000000; stroke-width: 0.8"/>
      </g>
     </g>
    </g>
    <g id="xtick_2">
     <g id="line2d_2">
      <g>
       <use xlink:href="#me28bf25de3" x="78.94375" y="35.702317" style="stroke: #000000; stroke-width: 0.8"/>
      </g>
     </g>
    </g>
   </g>
   <g id="matplotlib.axis_2">
    <g id="ytick_1">
     <g id="line2d_3">
      <defs>
       <path id="md04d5feaf2" d="M 0 0 
L -3.5 0 
" style="stroke: #000000; stroke-width: 0.8"/>
      </defs>
      <g>
       <use xlink:href="#md04d5feaf2" x="24.175" y="34.686145" style="stroke: #000000; stroke-width: 0.8"/>
      </g>
     </g>
     <g id="text_1">
      <!-- 0 -->
      <g transform="translate(10.8125 38.485364) scale(0.1 -0.1)">
       <defs>
        <path id="DejaVuSans-30" d="M 2034 4250 
Q 1547 4250 1301 3770 
Q 1056 3291 1056 2328 
Q 1056 1369 1301 889 
Q 1547 409 2034 409 
Q 2525 409 2770 889 
Q 3016 1369 3016 2328 
Q 3016 3291 2770 3770 
Q 2525 4250 2034 4250 
z
M 2034 4750 
Q 2819 4750 3233 4129 
Q 3647 3509 3647 2328 
Q 3647 1150 3233 529 
Q 2819 -91 2034 -91 
Q 1250 -91 836 529 
Q 422 1150 422 2328 
Q 422 3509 836 4129 
Q 1250 4750 2034 4750 
z
" transform="scale(0.015625)"/>
       </defs>
       <use xlink:href="#DejaVuSans-30"/>
      </g>
     </g>
    </g>
    <g id="ytick_2">
     <g id="line2d_4">
      <g>
       <use xlink:href="#md04d5feaf2" x="24.175" y="14.362696" style="stroke: #000000; stroke-width: 0.8"/>
      </g>
     </g>
     <g id="text_2">
      <!-- 1 -->
      <g transform="translate(10.8125 18.161915) scale(0.1 -0.1)">
       <defs>
        <path id="DejaVuSans-31" d="M 794 531 
L 1825 531 
L 1825 4091 
L 703 3866 
L 703 4441 
L 1819 4666 
L 2450 4666 
L 2450 531 
L 3481 531 
L 3481 0 
L 794 0 
L 794 531 
z
" transform="scale(0.015625)"/>
       </defs>
       <use xlink:href="#DejaVuSans-31"/>
      </g>
     </g>
    </g>
   </g>
   <g id="line2d_5">
    <path d="M 24.175 14.319058 
L 24.90525 14.319632 
L 25.6355 14.320156 
L 26.36575 14.320633 
L 27.096 14.321069 
L 27.82625 14.321447 
L 28.5565 14.321786 
L 29.28675 14.322067 
L 30.017 14.322309 
L 30.74725 14.322513 
L 31.4775 14.32268 
L 32.20775 14.322818 
L 32.938 14.32292 
L 33.66825 14.323017 
L 34.3985 14.323109 
L 35.12875 14.323186 
L 35.859 14.323293 
L 36.58925 14.323433 
L 37.3195 14.323627 
L 38.04975 14.323904 
L 38.78 14.324272 
L 39.51025 14.324771 
L 40.2405 14.325435 
L 40.97075 14.326283 
L 41.701 14.327363 
L 42.43125 14.328703 
L 43.1615 14.330346 
L 43.89175 14.332315 
L 44.622 14.334646 
L 45.35225 14.337359 
L 46.0825 14.340461 
L 46.81275 14.343947 
L 47.543 14.347814 
L 48.27325 14.35199 
L 49.0035 14.356417 
L 49.73375 14.360942 
L 50.464 14.365362 
L 51.19425 14.369312 
L 51.9245 14.372291 
L 52.65475 14.373562 
L 53.385 14.372188 
L 54.11525 14.367215 
L 54.8455 14.358088 
L 55.57575 14.34564 
L 56.306 14.332572 
L 57.03625 14.316747 
L 57.7665 14.30448 
L 58.49675 15.107495 
L 59.227 18.99324 
L 59.95725 23.233961 
L 60.6875 25.502745 
L 61.41775 26.075866 
L 62.148 26.72254 
L 62.87825 29.3065 
L 63.6085 29.799655 
L 64.33875 32.548975 
L 65.069 32.434863 
L 65.79925 32.323359 
L 66.5295 32.273305 
L 67.25975 32.251748 
L 67.99 32.240758 
L 68.72025 32.235157 
L 69.4505 32.232656 
L 70.18075 32.231789 
L 70.911 32.231678 
L 71.64125 32.231838 
L 72.3715 32.232024 
L 73.10175 32.232109 
L 73.832 32.23207 
L 74.56225 32.231871 
L 75.2925 32.231523 
L 76.02275 32.231019 
L 76.753 32.230369 
L 77.48325 32.22957 
L 78.2135 32.22863 
L 78.94375 32.227535 
L 79.674 32.226299 
L 80.40425 32.224918 
L 81.1345 32.223404 
L 81.86475 32.221749 
L 82.595 32.219976 
L 83.32525 32.218079 
L 84.0555 32.216085 
L 84.78575 32.213996 
L 85.516 32.211816 
L 86.24625 32.209575 
L 86.9765 32.207276 
L 87.70675 32.204926 
L 88.437 32.202549 
L 89.16725 32.200153 
L 89.8975 32.197754 
L 90.62775 32.195356 
L 91.358 32.192972 
L 92.08825 32.190622 
L 92.8185 32.188296 
L 93.54875 32.186023 
L 94.279 32.18379 
L 95.00925 32.181616 
L 95.7395 32.179511 
L 96.46975 32.177476 
L 97.2 32.175504 
" clip-path="url(#p01c9e90bfe)" style="fill: none; stroke: #1f77b4; stroke-width: 3; stroke-linecap: square"/>
   </g>
   <g id="line2d_6">
    <path d="M 24.175 14.362696 
L 24.90525 14.362696 
L 25.6355 14.362696 
L 26.36575 14.362696 
L 27.096 14.362696 
L 27.82625 14.362696 
L 28.5565 14.362696 
L 29.28675 14.362696 
L 30.017 14.362696 
L 30.74725 14.362696 
L 31.4775 14.362696 
L 32.20775 14.362696 
L 32.938 14.362696 
L 33.66825 14.362696 
L 34.3985 14.362696 
L 35.12875 14.362696 
L 35.859 14.362696 
L 36.58925 14.362696 
L 37.3195 14.362696 
L 38.04975 14.362696 
L 38.78 14.362696 
L 39.51025 14.362696 
L 40.2405 14.362696 
L 40.97075 14.362696 
L 41.701 14.362696 
L 42.43125 14.362696 
L 43.1615 14.362696 
L 43.89175 14.362696 
L 44.622 14.362696 
L 45.35225 14.362696 
L 46.0825 14.362696 
L 46.81275 14.362696 
L 47.543 14.362696 
L 48.27325 14.362696 
L 49.0035 14.362696 
L 49.73375 14.362696 
L 50.464 14.362696 
L 51.19425 14.362696 
L 51.9245 14.362696 
L 52.65475 14.362696 
L 53.385 14.362696 
L 54.11525 14.362696 
L 54.8455 14.362696 
L 55.57575 14.362696 
L 56.306 14.362696 
L 57.03625 14.362696 
L 57.7665 14.362696 
L 58.49675 14.362696 
L 59.227 19.286869 
L 59.95725 23.357992 
L 60.6875 26.021864 
L 61.41775 26.021864 
L 62.148 26.021864 
L 62.87825 29.288771 
L 63.6085 29.288771 
L 64.33875 32.145714 
L 65.069 32.145714 
L 65.79925 32.145714 
L 66.5295 32.145714 
L 67.25975 32.145714 
L 67.99 32.145714 
L 68.72025 32.145714 
L 69.4505 32.145714 
L 70.18075 32.145714 
L 70.911 32.145714 
L 71.64125 32.145714 
L 72.3715 32.145714 
L 73.10175 32.145714 
L 73.832 32.145714 
L 74.56225 32.145714 
L 75.2925 32.145714 
L 76.02275 32.145714 
L 76.753 32.145714 
L 77.48325 32.145714 
L 78.2135 32.145714 
L 78.94375 32.145714 
L 79.674 32.145714 
L 80.40425 32.145714 
L 81.1345 32.145714 
L 81.86475 32.145714 
L 82.595 32.145714 
L 83.32525 32.145714 
L 84.0555 32.145714 
L 84.78575 32.145714 
L 85.516 32.145714 
L 86.24625 32.145714 
L 86.9765 32.145714 
L 87.70675 32.145714 
L 88.437 32.145714 
L 89.16725 32.145714 
L 89.8975 32.145714 
L 90.62775 32.145714 
L 91.358 32.145714 
L 92.08825 32.145714 
L 92.8185 32.145714 
L 93.54875 32.145714 
L 94.279 32.145714 
L 95.00925 32.145714 
L 95.7395 32.145714 
L 96.46975 32.145714 
L 97.2 32.145714 
" clip-path="url(#p01c9e90bfe)" style="fill: none; stroke-dasharray: 5.55,2.4; stroke-dashoffset: 0; stroke: #000000; stroke-width: 1.5"/>
   </g>
   <g id="patch_3">
    <path d="M 24.175 35.702317 
L 24.175 13.346524 
" style="fill: none; stroke: #000000; stroke-width: 0.8; stroke-linejoin: miter; stroke-linecap: square"/>
   </g>
   <g id="patch_4">
    <path d="M 24.175 35.702317 
L 97.2 35.702317 
" style="fill: none; stroke: #000000; stroke-width: 0.8; stroke-linejoin: miter; stroke-linecap: square"/>
   </g>
  </g>
  <g id="axes_2">
   <g id="patch_5">
    <path d="M 24.175 75.951159 
L 97.2 75.951159 
L 97.2 53.595365 
L 24.175 53.595365 
z
" style="fill: #ffffff"/>
   </g>
   <g id="matplotlib.axis_3">
    <g id="xtick_3">
     <g id="line2d_7">
      <g>
       <use xlink:href="#me28bf25de3" x="42.43125" y="75.951159" style="stroke: #000000; stroke-width: 0.8"/>
      </g>
     </g>
    </g>
    <g id="xtick_4">
     <g id="line2d_8">
      <g>
       <use xlink:href="#me28bf25de3" x="78.94375" y="75.951159" style="stroke: #000000; stroke-width: 0.8"/>
      </g>
     </g>
    </g>
   </g>
   <g id="matplotlib.axis_4">
    <g id="ytick_3">
     <g id="line2d_9">
      <g>
       <use xlink:href="#md04d5feaf2" x="24.175" y="74.934986" style="stroke: #000000; stroke-width: 0.8"/>
      </g>
     </g>
     <g id="text_3">
      <!-- 0 -->
      <g transform="translate(10.8125 78.734205) scale(0.1 -0.1)">
       <use xlink:href="#DejaVuSans-30"/>
      </g>
     </g>
    </g>
    <g id="ytick_4">
     <g id="line2d_10">
      <g>
       <use xlink:href="#md04d5feaf2" x="24.175" y="54.611538" style="stroke: #000000; stroke-width: 0.8"/>
      </g>
     </g>
     <g id="text_4">
      <!-- 1 -->
      <g transform="translate(10.8125 58.410757) scale(0.1 -0.1)">
       <use xlink:href="#DejaVuSans-31"/>
      </g>
     </g>
    </g>
   </g>
   <g id="line2d_11">
    <path d="M 24.175 74.953738 
L 24.90525 74.953341 
L 25.6355 74.952971 
L 26.36575 74.952614 
L 27.096 74.952308 
L 27.82625 74.952001 
L 28.5565 74.951743 
L 29.28675 74.951488 
L 30.017 74.951266 
L 30.74725 74.951042 
L 31.4775 74.950838 
L 32.20775 74.950667 
L 32.938 74.950478 
L 33.66825 74.950294 
L 34.3985 74.950121 
L 35.12875 74.949916 
L 35.859 74.9497 
L 36.58925 74.949446 
L 37.3195 74.949135 
L 38.04975 74.948812 
L 38.78 74.948366 
L 39.51025 74.947851 
L 40.2405 74.947235 
L 40.97075 74.946466 
L 41.701 74.945571 
L 42.43125 74.944494 
L 43.1615 74.943258 
L 43.89175 74.941783 
L 44.622 74.940105 
L 45.35225 74.938244 
L 46.0825 74.936156 
L 46.81275 74.933898 
L 47.543 74.931532 
L 48.27325 74.929088 
L 49.0035 74.92669 
L 49.73375 74.924533 
L 50.464 74.922836 
L 51.19425 74.92198 
L 51.9245 74.922552 
L 52.65475 74.925249 
L 53.385 74.931107 
L 54.11525 74.941162 
L 54.8455 74.956179 
L 55.57575 74.975661 
L 56.306 74.996855 
L 57.03625 75.016174 
L 57.7665 75.016916 
L 58.49675 74.067629 
L 59.227 69.001659 
L 59.95725 61.897014 
L 60.6875 57.231878 
L 61.41775 55.913123 
L 62.148 56.019542 
L 62.87825 56.312452 
L 63.6085 56.977652 
L 64.33875 75.363128 
L 65.069 75.052804 
L 65.79925 74.945787 
L 66.5295 74.920689 
L 67.25975 74.916208 
L 67.99 74.915344 
L 68.72025 74.914819 
L 69.4505 74.914127 
L 70.18075 74.913185 
L 70.911 74.912043 
L 71.64125 74.910804 
L 72.3715 74.909535 
L 73.10175 74.908271 
L 73.832 74.907151 
L 74.56225 74.906131 
L 75.2925 74.905267 
L 76.02275 74.904572 
L 76.753 74.904037 
L 77.48325 74.903681 
L 78.2135 74.903504 
L 78.94375 74.903452 
L 79.674 74.903554 
L 80.40425 74.903764 
L 81.1345 74.904094 
L 81.86475 74.904469 
L 82.595 74.904907 
L 83.32525 74.905355 
L 84.0555 74.90583 
L 84.78575 74.906286 
L 85.516 74.906678 
L 86.24625 74.907017 
L 86.9765 74.907286 
L 87.70675 74.907458 
L 88.437 74.907521 
L 89.16725 74.907487 
L 89.8975 74.907363 
L 90.62775 74.907102 
L 91.358 74.906726 
L 92.08825 74.906219 
L 92.8185 74.905603 
L 93.54875 74.90489 
L 94.279 74.904031 
L 95.00925 74.903087 
L 95.7395 74.902025 
L 96.46975 74.900882 
L 97.2 74.899614 
" clip-path="url(#pcb102a543d)" style="fill: none; stroke: #1f77b4; stroke-width: 3; stroke-linecap: square"/>
   </g>
   <g id="line2d_12">
    <path d="M 24.175 74.934986 
L 24.90525 74.934986 
L 25.6355 74.934986 
L 26.36575 74.934986 
L 27.096 74.934986 
L 27.82625 74.934986 
L 28.5565 74.934986 
L 29.28675 74.934986 
L 30.017 74.934986 
L 30.74725 74.934986 
L 31.4775 74.934986 
L 32.20775 74.934986 
L 32.938 74.934986 
L 33.66825 74.934986 
L 34.3985 74.934986 
L 35.12875 74.934986 
L 35.859 74.934986 
L 36.58925 74.934986 
L 37.3195 74.934986 
L 38.04975 74.934986 
L 38.78 74.934986 
L 39.51025 74.934986 
L 40.2405 74.934986 
L 40.97075 74.934986 
L 41.701 74.934986 
L 42.43125 74.934986 
L 43.1615 74.934986 
L 43.89175 74.934986 
L 44.622 74.934986 
L 45.35225 74.934986 
L 46.0825 74.934986 
L 46.81275 74.934986 
L 47.543 74.934986 
L 48.27325 74.934986 
L 49.0035 74.934986 
L 49.73375 74.934986 
L 50.464 74.934986 
L 51.19425 74.934986 
L 51.9245 74.934986 
L 52.65475 74.934986 
L 53.385 74.934986 
L 54.11525 74.934986 
L 54.8455 74.934986 
L 55.57575 74.934986 
L 56.306 74.934986 
L 57.03625 74.934986 
L 57.7665 74.934986 
L 58.49675 74.934986 
L 59.227 68.444761 
L 59.95725 61.670279 
L 60.6875 56.085951 
L 61.41775 56.085951 
L 62.148 56.085951 
L 62.87825 56.085951 
L 63.6085 56.085951 
L 64.33875 74.934986 
L 65.069 74.934986 
L 65.79925 74.934986 
L 66.5295 74.934986 
L 67.25975 74.934986 
L 67.99 74.934986 
L 68.72025 74.934986 
L 69.4505 74.934986 
L 70.18075 74.934986 
L 70.911 74.934986 
L 71.64125 74.934986 
L 72.3715 74.934986 
L 73.10175 74.934986 
L 73.832 74.934986 
L 74.56225 74.934986 
L 75.2925 74.934986 
L 76.02275 74.934986 
L 76.753 74.934986 
L 77.48325 74.934986 
L 78.2135 74.934986 
L 78.94375 74.934986 
L 79.674 74.934986 
L 80.40425 74.934986 
L 81.1345 74.934986 
L 81.86475 74.934986 
L 82.595 74.934986 
L 83.32525 74.934986 
L 84.0555 74.934986 
L 84.78575 74.934986 
L 85.516 74.934986 
L 86.24625 74.934986 
L 86.9765 74.934986 
L 87.70675 74.934986 
L 88.437 74.934986 
L 89.16725 74.934986 
L 89.8975 74.934986 
L 90.62775 74.934986 
L 91.358 74.934986 
L 92.08825 74.934986 
L 92.8185 74.934986 
L 93.54875 74.934986 
L 94.279 74.934986 
L 95.00925 74.934986 
L 95.7395 74.934986 
L 96.46975 74.934986 
L 97.2 74.934986 
" clip-path="url(#pcb102a543d)" style="fill: none; stroke-dasharray: 5.55,2.4; stroke-dashoffset: 0; stroke: #000000; stroke-width: 1.5"/>
   </g>
   <g id="patch_6">
    <path d="M 24.175 75.951159 
L 24.175 53.595365 
" style="fill: none; stroke: #000000; stroke-width: 0.8; stroke-linejoin: miter; stroke-linecap: square"/>
   </g>
   <g id="patch_7">
    <path d="M 24.175 75.951159 
L 97.2 75.951159 
" style="fill: none; stroke: #000000; stroke-width: 0.8; stroke-linejoin: miter; stroke-linecap: square"/>
   </g>
  </g>
  <g id="axes_3">
   <g id="patch_8">
    <path d="M 24.175 116.2 
L 97.2 116.2 
L 97.2 93.844207 
L 24.175 93.844207 
z
" style="fill: #ffffff"/>
   </g>
   <g id="matplotlib.axis_5">
    <g id="xtick_5">
     <g id="line2d_13">
      <g>
       <use xlink:href="#me28bf25de3" x="42.43125" y="116.2" style="stroke: #000000; stroke-width: 0.8"/>
      </g>
     </g>
     <g id="text_5">
      <!-- 0 -->
      <g transform="translate(39.25 130.798438) scale(0.1 -0.1)">
       <use xlink:href="#DejaVuSans-30"/>
      </g>
     </g>
    </g>
    <g id="xtick_6">
     <g id="line2d_14">
      <g>
       <use xlink:href="#me28bf25de3" x="78.94375" y="116.2" style="stroke: #000000; stroke-width: 0.8"/>
      </g>
     </g>
     <g id="text_6">
      <!-- 1 -->
      <g transform="translate(75.7625 130.798438) scale(0.1 -0.1)">
       <use xlink:href="#DejaVuSans-31"/>
      </g>
     </g>
    </g>
   </g>
   <g id="matplotlib.axis_6">
    <g id="ytick_5">
     <g id="line2d_15">
      <g>
       <use xlink:href="#md04d5feaf2" x="24.175" y="115.183828" style="stroke: #000000; stroke-width: 0.8"/>
      </g>
     </g>
     <g id="text_7">
      <!-- 0 -->
      <g transform="translate(10.8125 118.983046) scale(0.1 -0.1)">
       <use xlink:href="#DejaVuSans-30"/>
      </g>
     </g>
    </g>
    <g id="ytick_6">
     <g id="line2d_16">
      <g>
       <use xlink:href="#md04d5feaf2" x="24.175" y="94.860379" style="stroke: #000000; stroke-width: 0.8"/>
      </g>
     </g>
     <g id="text_8">
      <!-- 1 -->
      <g transform="translate(10.8125 98.659598) scale(0.1 -0.1)">
       <use xlink:href="#DejaVuSans-31"/>
      </g>
     </g>
    </g>
   </g>
   <g id="line2d_17">
    <path d="M 24.175 94.832256 
L 24.90525 94.832527 
L 25.6355 94.832762 
L 26.36575 94.832961 
L 27.096 94.833128 
L 27.82625 94.833252 
L 28.5565 94.833344 
L 29.28675 94.833395 
L 30.017 94.833421 
L 30.74725 94.833414 
L 31.4775 94.833375 
L 32.20775 94.833317 
L 32.938 94.833237 
L 33.66825 94.833148 
L 34.3985 94.833043 
L 35.12875 94.832939 
L 35.859 94.832857 
L 36.58925 94.832789 
L 37.3195 94.832762 
L 38.04975 94.832784 
L 38.78 94.832896 
L 39.51025 94.833092 
L 40.2405 94.833412 
L 40.97075 94.833879 
L 41.701 94.834519 
L 42.43125 94.835362 
L 43.1615 94.836455 
L 43.89175 94.837814 
L 44.622 94.839478 
L 45.35225 94.841472 
L 46.0825 94.843827 
L 46.81275 94.846565 
L 47.543 94.849712 
L 48.27325 94.853268 
L 49.0035 94.857242 
L 49.73375 94.861571 
L 50.464 94.866172 
L 51.19425 94.870797 
L 51.9245 94.875042 
L 52.65475 94.878218 
L 53.385 94.879342 
L 54.11525 94.877274 
L 54.8455 94.87093 
L 55.57575 94.859093 
L 56.306 94.838935 
L 57.03625 94.808247 
L 57.7665 94.794774 
L 58.49675 95.868364 
L 59.227 100.956015 
L 59.95725 106.05566 
L 60.6875 108.451912 
L 61.41775 109.040079 
L 62.148 109.02107 
L 62.87825 109.066725 
L 63.6085 109.386623 
L 64.33875 113.336293 
L 65.069 113.236945 
L 65.79925 113.206838 
L 66.5295 113.201068 
L 67.25975 113.195162 
L 67.99 113.186656 
L 68.72025 113.179424 
L 69.4505 113.174947 
L 70.18075 113.1729 
L 70.911 113.172486 
L 71.64125 113.173021 
L 72.3715 113.174013 
L 73.10175 113.175157 
L 73.832 113.176293 
L 74.56225 113.177302 
L 75.2925 113.178144 
L 76.02275 113.178783 
L 76.753 113.179208 
L 77.48325 113.179415 
L 78.2135 113.179413 
L 78.94375 113.179196 
L 79.674 113.178783 
L 80.40425 113.178185 
L 81.1345 113.177405 
L 81.86475 113.176467 
L 82.595 113.17538 
L 83.32525 113.174165 
L 84.0555 113.172839 
L 84.78575 113.17142 
L 85.516 113.169918 
L 86.24625 113.168363 
L 86.9765 113.166757 
L 87.70675 113.165125 
L 88.437 113.163475 
L 89.16725 113.161834 
L 89.8975 113.160196 
L 90.62775 113.158581 
L 91.358 113.156994 
L 92.08825 113.155453 
L 92.8185 113.153957 
L 93.54875 113.152525 
L 94.279 113.151147 
L 95.00925 113.149834 
L 95.7395 113.148596 
L 96.46975 113.147431 
L 97.2 113.14634 
" clip-path="url(#p539e11946b)" style="fill: none; stroke: #1f77b4; stroke-width: 3; stroke-linecap: square"/>
   </g>
   <g id="line2d_18">
    <path d="M 24.175 94.860379 
L 24.90525 94.860379 
L 25.6355 94.860379 
L 26.36575 94.860379 
L 27.096 94.860379 
L 27.82625 94.860379 
L 28.5565 94.860379 
L 29.28675 94.860379 
L 30.017 94.860379 
L 30.74725 94.860379 
L 31.4775 94.860379 
L 32.20775 94.860379 
L 32.938 94.860379 
L 33.66825 94.860379 
L 34.3985 94.860379 
L 35.12875 94.860379 
L 35.859 94.860379 
L 36.58925 94.860379 
L 37.3195 94.860379 
L 38.04975 94.860379 
L 38.78 94.860379 
L 39.51025 94.860379 
L 40.2405 94.860379 
L 40.97075 94.860379 
L 41.701 94.860379 
L 42.43125 94.860379 
L 43.1615 94.860379 
L 43.89175 94.860379 
L 44.622 94.860379 
L 45.35225 94.860379 
L 46.0825 94.860379 
L 46.81275 94.860379 
L 47.543 94.860379 
L 48.27325 94.860379 
L 49.0035 94.860379 
L 49.73375 94.860379 
L 50.464 94.860379 
L 51.19425 94.860379 
L 51.9245 94.860379 
L 52.65475 94.860379 
L 53.385 94.860379 
L 54.11525 94.860379 
L 54.8455 94.860379 
L 55.57575 94.860379 
L 56.306 94.860379 
L 57.03625 94.860379 
L 57.7665 94.860379 
L 58.49675 94.860379 
L 59.227 101.40217 
L 59.95725 106.217311 
L 60.6875 109.023177 
L 61.41775 109.023177 
L 62.148 109.023177 
L 62.87825 109.023177 
L 63.6085 109.023177 
L 64.33875 113.151483 
L 65.069 113.151483 
L 65.79925 113.151483 
L 66.5295 113.151483 
L 67.25975 113.151483 
L 67.99 113.151483 
L 68.72025 113.151483 
L 69.4505 113.151483 
L 70.18075 113.151483 
L 70.911 113.151483 
L 71.64125 113.151483 
L 72.3715 113.151483 
L 73.10175 113.151483 
L 73.832 113.151483 
L 74.56225 113.151483 
L 75.2925 113.151483 
L 76.02275 113.151483 
L 76.753 113.151483 
L 77.48325 113.151483 
L 78.2135 113.151483 
L 78.94375 113.151483 
L 79.674 113.151483 
L 80.40425 113.151483 
L 81.1345 113.151483 
L 81.86475 113.151483 
L 82.595 113.151483 
L 83.32525 113.151483 
L 84.0555 113.151483 
L 84.78575 113.151483 
L 85.516 113.151483 
L 86.24625 113.151483 
L 86.9765 113.151483 
L 87.70675 113.151483 
L 88.437 113.151483 
L 89.16725 113.151483 
L 89.8975 113.151483 
L 90.62775 113.151483 
L 91.358 113.151483 
L 92.08825 113.151483 
L 92.8185 113.151483 
L 93.54875 113.151483 
L 94.279 113.151483 
L 95.00925 113.151483 
L 95.7395 113.151483 
L 96.46975 113.151483 
L 97.2 113.151483 
" clip-path="url(#p539e11946b)" style="fill: none; stroke-dasharray: 5.55,2.4; stroke-dashoffset: 0; stroke: #000000; stroke-width: 1.5"/>
   </g>
   <g id="patch_9">
    <path d="M 24.175 116.2 
L 24.175 93.844207 
" style="fill: none; stroke: #000000; stroke-width: 0.8; stroke-linejoin: miter; stroke-linecap: square"/>
   </g>
   <g id="patch_10">
    <path d="M 24.175 116.2 
L 97.2 116.2 
" style="fill: none; stroke: #000000; stroke-width: 0.8; stroke-linejoin: miter; stroke-linecap: square"/>
   </g>
  </g>
 </g>
 <defs>
  <clipPath id="p01c9e90bfe">
   <rect x="24.175" y="13.346524" width="73.025" height="22.355793"/>
  </clipPath>
  <clipPath id="pcb102a543d">
   <rect x="24.175" y="53.595365" width="73.025" height="22.355793"/>
  </clipPath>
  <clipPath id="p539e11946b">
   <rect x="24.175" y="93.844207" width="73.025" height="22.355793"/>
  </clipPath>
 </defs>
</svg>
