<?xml version="1.0" encoding="utf-8" standalone="no"?>
<!DOCTYPE svg PUBLIC "-//W3C//DTD SVG 1.1//EN"
  "http://www.w3.org/Graphics/SVG/1.1/DTD/svg11.dtd">
<svg xmlns:xlink="http://www.w3.org/1999/xlink" width="108pt" height="144pt" viewBox="0 0 108 144" xmlns="http://www.w3.org/2000/svg" version="1.1">
 <metadata>
  <rdf:RDF xmlns:dc="http://purl.org/dc/elements/1.1/" xmlns:cc="http://creativecommons.org/ns#" xmlns:rdf="http://www.w3.org/1999/02/22-rdf-syntax-ns#">
   <cc:Work>
    <dc:type rdf:resource="http://purl.org/dc/dcmitype/StillImage"/>
    <dc:date>2024-03-15T16:02:06.145606</dc:date>
    <dc:format>image/svg+xml</dc:format>
    <dc:creator>
     <cc:Agent>
      <dc:title>Matplotlib v3.7.2, https://matplotlib.org/</dc:title>
     </cc:Agent>
    </dc:creator>
   </cc:Work>
  </rdf:RDF>
 </metadata>
 <defs>
  <style type="text/css">*{stroke-linejoin: round; stroke-linecap: butt}</style>
 </defs>
 <g id="figure_1">
  <g id="patch_1">
   <path d="M 0 144 
L 108 144 
L 108 0 
L 0 0 
z
" style="fill: #ffffff"/>
  </g>
  <g id="axes_1">
   <g id="patch_2">
    <path d="M 24.175 35.702317 
L 97.2 35.702317 
L 97.2 13.346524 
L 24.175 13.346524 
z
" style="fill: #ffffff"/>
   </g>
   <g id="matplotlib.axis_1">
    <g id="xtick_1">
     <g id="line2d_1">
      <defs>
       <path id="m6066cec8db" d="M 0 0 
L 0 3.5 
" style="stroke: #000000; stroke-width: 0.8"/>
      </defs>
      <g>
       <use xlink:href="#m6066cec8db" x="42.43125" y="35.702317" style="stroke: #000000; stroke-width: 0.8"/>
      </g>
     </g>
    </g>
    <g id="xtick_2">
     <g id="line2d_2">
      <g>
       <use xlink:href="#m6066cec8db" x="78.94375" y="35.702317" style="stroke: #000000; stroke-width: 0.8"/>
      </g>
     </g>
    </g>
   </g>
   <g id="matplotlib.axis_2">
    <g id="ytick_1">
     <g id="line2d_3">
      <defs>
       <path id="m47a262e7f7" d="M 0 0 
L -3.5 0 
" style="stroke: #000000; stroke-width: 0.8"/>
      </defs>
      <g>
       <use xlink:href="#m47a262e7f7" x="24.175" y="34.686145" style="stroke: #000000; stroke-width: 0.8"/>
      </g>
     </g>
     <g id="text_1">
      <!-- 0 -->
      <g transform="translate(10.8125 38.485364) scale(0.1 -0.1)">
       <defs>
        <path id="DejaVuSans-30" d="M 2034 4250 
Q 1547 4250 1301 3770 
Q 1056 3291 1056 2328 
Q 1056 1369 1301 889 
Q 1547 409 2034 409 
Q 2525 409 2770 889 
Q 3016 1369 3016 2328 
Q 3016 3291 2770 3770 
Q 2525 4250 2034 4250 
z
M 2034 4750 
Q 2819 4750 3233 4129 
Q 3647 3509 3647 2328 
Q 3647 1150 3233 529 
Q 2819 -91 2034 -91 
Q 1250 -91 836 529 
Q 422 1150 422 2328 
Q 422 3509 836 4129 
Q 1250 4750 2034 4750 
z
" transform="scale(0.015625)"/>
       </defs>
       <use xlink:href="#DejaVuSans-30"/>
      </g>
     </g>
    </g>
    <g id="ytick_2">
     <g id="line2d_4">
      <g>
       <use xlink:href="#m47a262e7f7" x="24.175" y="14.362696" style="stroke: #000000; stroke-width: 0.8"/>
      </g>
     </g>
     <g id="text_2">
      <!-- 1 -->
      <g transform="translate(10.8125 18.161915) scale(0.1 -0.1)">
       <defs>
        <path id="DejaVuSans-31" d="M 794 531 
L 1825 531 
L 1825 4091 
L 703 3866 
L 703 4441 
L 1819 4666 
L 2450 4666 
L 2450 531 
L 3481 531 
L 3481 0 
L 794 0 
L 794 531 
z
" transform="scale(0.015625)"/>
       </defs>
       <use xlink:href="#DejaVuSans-31"/>
      </g>
     </g>
    </g>
   </g>
   <g id="line2d_5">
    <path d="M 24.175 14.343048 
L 24.90525 14.344167 
L 25.6355 14.345248 
L 26.36575 14.346314 
L 27.096 14.347331 
L 27.82625 14.348325 
L 28.5565 14.349287 
L 29.28675 14.350217 
L 30.017 14.351116 
L 30.74725 14.351993 
L 31.4775 14.352836 
L 32.20775 14.35365 
L 32.938 14.35444 
L 33.66825 14.355201 
L 34.3985 14.355932 
L 35.12875 14.356637 
L 35.859 14.357294 
L 36.58925 14.357921 
L 37.3195 14.358495 
L 38.04975 14.359004 
L 38.78 14.359431 
L 39.51025 14.359753 
L 40.2405 14.359937 
L 40.97075 14.359952 
L 41.701 14.359748 
L 42.43125 14.359276 
L 43.1615 14.358488 
L 43.89175 14.357364 
L 44.622 14.355927 
L 45.35225 14.354328 
L 46.0825 14.352918 
L 46.81275 14.352279 
L 47.543 14.352899 
L 48.27325 14.35428 
L 49.0035 14.354372 
L 49.73375 14.351591 
L 50.464 14.348301 
L 51.19425 14.396594 
L 51.9245 14.730573 
L 52.65475 15.541512 
L 53.385 16.73006 
L 54.11525 18.089175 
L 54.8455 19.425097 
L 55.57575 20.621282 
L 56.306 21.661389 
L 57.03625 22.594641 
L 57.7665 23.480826 
L 58.49675 24.337799 
L 59.227 25.109213 
L 59.95725 25.695556 
L 60.6875 26.045267 
L 61.41775 26.195587 
L 62.148 26.220693 
L 62.87825 26.178669 
L 63.6085 26.101339 
L 64.33875 26.002044 
L 65.069 25.883922 
L 65.79925 25.766547 
L 66.5295 25.87653 
L 67.25975 27.152075 
L 67.99 28.87475 
L 68.72025 29.274372 
L 69.4505 29.260672 
L 70.18075 29.231512 
L 70.911 29.217237 
L 71.64125 29.233275 
L 72.3715 29.342379 
L 73.10175 28.994805 
L 73.832 32.096462 
L 74.56225 32.077911 
L 75.2925 32.109804 
L 76.02275 32.123798 
L 76.753 32.131546 
L 77.48325 32.138009 
L 78.2135 32.145224 
L 78.94375 32.153379 
L 79.674 32.161796 
L 80.40425 32.169755 
L 81.1345 32.176802 
L 81.86475 32.182767 
L 82.595 32.187647 
L 83.32525 32.191576 
L 84.0555 32.194702 
L 84.78575 32.197173 
L 85.516 32.199126 
L 86.24625 32.200674 
L 86.9765 32.201912 
L 87.70675 32.20291 
L 88.437 32.203712 
L 89.16725 32.204364 
L 89.8975 32.204901 
L 90.62775 32.205352 
L 91.358 32.205718 
L 92.08825 32.206026 
L 92.8185 32.206278 
L 93.54875 32.206488 
L 94.279 32.20666 
L 95.00925 32.206811 
L 95.7395 32.206924 
L 96.46975 32.207019 
L 97.2 32.207096 
" clip-path="url(#pe1e86e5834)" style="fill: none; stroke: #1f77b4; stroke-width: 3; stroke-linecap: square"/>
   </g>
   <g id="line2d_6">
    <path d="M 24.175 14.362696 
L 24.90525 14.362696 
L 25.6355 14.362696 
L 26.36575 14.362696 
L 27.096 14.362696 
L 27.82625 14.362696 
L 28.5565 14.362696 
L 29.28675 14.362696 
L 30.017 14.362696 
L 30.74725 14.362696 
L 31.4775 14.362696 
L 32.20775 14.362696 
L 32.938 14.362696 
L 33.66825 14.362696 
L 34.3985 14.362696 
L 35.12875 14.362696 
L 35.859 14.362696 
L 36.58925 14.362696 
L 37.3195 14.362696 
L 38.04975 14.362696 
L 38.78 14.362696 
L 39.51025 14.362696 
L 40.2405 14.362696 
L 40.97075 14.362696 
L 41.701 14.362696 
L 42.43125 14.362696 
L 43.1615 14.362696 
L 43.89175 14.362696 
L 44.622 14.362696 
L 45.35225 14.362696 
L 46.0825 14.362696 
L 46.81275 14.362696 
L 47.543 14.362696 
L 48.27325 14.362696 
L 49.0035 14.362696 
L 49.73375 14.362696 
L 50.464 14.362696 
L 51.19425 14.362696 
L 51.9245 14.362696 
L 52.65475 15.526227 
L 53.385 16.853284 
L 54.11525 18.105769 
L 54.8455 19.286869 
L 55.57575 20.399682 
L 56.306 21.447211 
L 57.03625 22.432372 
L 57.7665 23.357992 
L 58.49675 24.226813 
L 59.227 25.041488 
L 59.95725 25.80459 
L 60.6875 26.021864 
L 61.41775 26.021864 
L 62.148 26.021864 
L 62.87825 26.021864 
L 63.6085 26.021864 
L 64.33875 26.021864 
L 65.069 26.021864 
L 65.79925 26.021864 
L 66.5295 26.021864 
L 67.25975 26.021864 
L 67.99 29.288771 
L 68.72025 29.288771 
L 69.4505 29.288771 
L 70.18075 29.288771 
L 70.911 29.288771 
L 71.64125 29.288771 
L 72.3715 29.288771 
L 73.10175 29.288771 
L 73.832 32.145714 
L 74.56225 32.145714 
L 75.2925 32.145714 
L 76.02275 32.145714 
L 76.753 32.145714 
L 77.48325 32.145714 
L 78.2135 32.145714 
L 78.94375 32.145714 
L 79.674 32.145714 
L 80.40425 32.145714 
L 81.1345 32.145714 
L 81.86475 32.145714 
L 82.595 32.145714 
L 83.32525 32.145714 
L 84.0555 32.145714 
L 84.78575 32.145714 
L 85.516 32.145714 
L 86.24625 32.145714 
L 86.9765 32.145714 
L 87.70675 32.145714 
L 88.437 32.145714 
L 89.16725 32.145714 
L 89.8975 32.145714 
L 90.62775 32.145714 
L 91.358 32.145714 
L 92.08825 32.145714 
L 92.8185 32.145714 
L 93.54875 32.145714 
L 94.279 32.145714 
L 95.00925 32.145714 
L 95.7395 32.145714 
L 96.46975 32.145714 
L 97.2 32.145714 
" clip-path="url(#pe1e86e5834)" style="fill: none; stroke-dasharray: 5.55,2.4; stroke-dashoffset: 0; stroke: #000000; stroke-width: 1.5"/>
   </g>
   <g id="patch_3">
    <path d="M 24.175 35.702317 
L 24.175 13.346524 
" style="fill: none; stroke: #000000; stroke-width: 0.8; stroke-linejoin: miter; stroke-linecap: square"/>
   </g>
   <g id="patch_4">
    <path d="M 24.175 35.702317 
L 97.2 35.702317 
" style="fill: none; stroke: #000000; stroke-width: 0.8; stroke-linejoin: miter; stroke-linecap: square"/>
   </g>
  </g>
  <g id="axes_2">
   <g id="patch_5">
    <path d="M 24.175 75.951159 
L 97.2 75.951159 
L 97.2 53.595365 
L 24.175 53.595365 
z
" style="fill: #ffffff"/>
   </g>
   <g id="matplotlib.axis_3">
    <g id="xtick_3">
     <g id="line2d_7">
      <g>
       <use xlink:href="#m6066cec8db" x="42.43125" y="75.951159" style="stroke: #000000; stroke-width: 0.8"/>
      </g>
     </g>
    </g>
    <g id="xtick_4">
     <g id="line2d_8">
      <g>
       <use xlink:href="#m6066cec8db" x="78.94375" y="75.951159" style="stroke: #000000; stroke-width: 0.8"/>
      </g>
     </g>
    </g>
   </g>
   <g id="matplotlib.axis_4">
    <g id="ytick_3">
     <g id="line2d_9">
      <g>
       <use xlink:href="#m47a262e7f7" x="24.175" y="74.934986" style="stroke: #000000; stroke-width: 0.8"/>
      </g>
     </g>
     <g id="text_3">
      <!-- 0 -->
      <g transform="translate(10.8125 78.734205) scale(0.1 -0.1)">
       <use xlink:href="#DejaVuSans-30"/>
      </g>
     </g>
    </g>
    <g id="ytick_4">
     <g id="line2d_10">
      <g>
       <use xlink:href="#m47a262e7f7" x="24.175" y="54.611538" style="stroke: #000000; stroke-width: 0.8"/>
      </g>
     </g>
     <g id="text_4">
      <!-- 1 -->
      <g transform="translate(10.8125 58.410757) scale(0.1 -0.1)">
       <use xlink:href="#DejaVuSans-31"/>
      </g>
     </g>
    </g>
   </g>
   <g id="line2d_11">
    <path d="M 24.175 74.948673 
L 24.90525 74.948142 
L 25.6355 74.947638 
L 26.36575 74.947151 
L 27.096 74.946678 
L 27.82625 74.946236 
L 28.5565 74.945817 
L 29.28675 74.945416 
L 30.017 74.945016 
L 30.74725 74.944646 
L 31.4775 74.944316 
L 32.20775 74.944026 
L 32.938 74.943733 
L 33.66825 74.943493 
L 34.3985 74.943292 
L 35.12875 74.943131 
L 35.859 74.943045 
L 36.58925 74.943032 
L 37.3195 74.94311 
L 38.04975 74.943282 
L 38.78 74.943603 
L 39.51025 74.944124 
L 40.2405 74.944839 
L 40.97075 74.945852 
L 41.701 74.947209 
L 42.43125 74.949021 
L 43.1615 74.951323 
L 43.89175 74.954249 
L 44.622 74.95781 
L 45.35225 74.962079 
L 46.0825 74.966824 
L 46.81275 74.971743 
L 47.543 74.976455 
L 48.27325 74.981104 
L 49.0035 74.986446 
L 49.73375 74.99258 
L 50.464 74.997839 
L 51.19425 74.943241 
L 51.9245 74.555172 
L 52.65475 73.592701 
L 53.385 72.113714 
L 54.11525 70.302943 
L 54.8455 68.378251 
L 55.57575 66.515757 
L 56.306 64.778914 
L 57.03625 63.124883 
L 57.7665 61.474924 
L 58.49675 59.812401 
L 59.227 58.262601 
L 59.95725 57.0486 
L 60.6875 56.299352 
L 61.41775 55.946768 
L 62.148 55.832894 
L 62.87825 55.831445 
L 63.6085 55.873693 
L 64.33875 55.930104 
L 65.069 55.991215 
L 65.79925 56.054325 
L 66.5295 56.100038 
L 67.25975 56.046117 
L 67.99 55.935565 
L 68.72025 55.900508 
L 69.4505 55.883427 
L 70.18075 55.873116 
L 70.911 55.864983 
L 71.64125 55.863852 
L 72.3715 55.923819 
L 73.10175 55.349406 
L 73.832 75.988908 
L 74.56225 74.552773 
L 75.2925 74.672693 
L 76.02275 74.826161 
L 76.753 74.88145 
L 77.48325 74.903679 
L 78.2135 74.915374 
L 78.94375 74.923078 
L 79.674 74.928468 
L 80.40425 74.932073 
L 81.1345 74.934296 
L 81.86475 74.935542 
L 82.595 74.936072 
L 83.32525 74.936215 
L 84.0555 74.936098 
L 84.78575 74.935881 
L 85.516 74.935611 
L 86.24625 74.935288 
L 86.9765 74.935021 
L 87.70675 74.934766 
L 88.437 74.934576 
L 89.16725 74.934385 
L 89.8975 74.934279 
L 90.62775 74.934216 
L 91.358 74.93417 
L 92.08825 74.934197 
L 92.8185 74.934245 
L 93.54875 74.934361 
L 94.279 74.934497 
L 95.00925 74.934674 
L 95.7395 74.934864 
L 96.46975 74.935091 
L 97.2 74.935349 
" clip-path="url(#p38c74563ae)" style="fill: none; stroke: #1f77b4; stroke-width: 3; stroke-linecap: square"/>
   </g>
   <g id="line2d_12">
    <path d="M 24.175 74.934986 
L 24.90525 74.934986 
L 25.6355 74.934986 
L 26.36575 74.934986 
L 27.096 74.934986 
L 27.82625 74.934986 
L 28.5565 74.934986 
L 29.28675 74.934986 
L 30.017 74.934986 
L 30.74725 74.934986 
L 31.4775 74.934986 
L 32.20775 74.934986 
L 32.938 74.934986 
L 33.66825 74.934986 
L 34.3985 74.934986 
L 35.12875 74.934986 
L 35.859 74.934986 
L 36.58925 74.934986 
L 37.3195 74.934986 
L 38.04975 74.934986 
L 38.78 74.934986 
L 39.51025 74.934986 
L 40.2405 74.934986 
L 40.97075 74.934986 
L 41.701 74.934986 
L 42.43125 74.934986 
L 43.1615 74.934986 
L 43.89175 74.934986 
L 44.622 74.934986 
L 45.35225 74.934986 
L 46.0825 74.934986 
L 46.81275 74.934986 
L 47.543 74.934986 
L 48.27325 74.934986 
L 49.0035 74.934986 
L 49.73375 74.934986 
L 50.464 74.934986 
L 51.19425 74.934986 
L 51.9245 74.934986 
L 52.65475 73.525624 
L 53.385 71.832003 
L 54.11525 70.138382 
L 54.8455 68.444761 
L 55.57575 66.751141 
L 56.306 65.05752 
L 57.03625 63.363899 
L 57.7665 61.670279 
L 58.49675 59.976658 
L 59.227 58.283037 
L 59.95725 56.589417 
L 60.6875 56.085951 
L 61.41775 56.085951 
L 62.148 56.085951 
L 62.87825 56.085951 
L 63.6085 56.085951 
L 64.33875 56.085951 
L 65.069 56.085951 
L 65.79925 56.085951 
L 66.5295 56.085951 
L 67.25975 56.085951 
L 67.99 56.085951 
L 68.72025 56.085951 
L 69.4505 56.085951 
L 70.18075 56.085951 
L 70.911 56.085951 
L 71.64125 56.085951 
L 72.3715 56.085951 
L 73.10175 56.085951 
L 73.832 74.934986 
L 74.56225 74.934986 
L 75.2925 74.934986 
L 76.02275 74.934986 
L 76.753 74.934986 
L 77.48325 74.934986 
L 78.2135 74.934986 
L 78.94375 74.934986 
L 79.674 74.934986 
L 80.40425 74.934986 
L 81.1345 74.934986 
L 81.86475 74.934986 
L 82.595 74.934986 
L 83.32525 74.934986 
L 84.0555 74.934986 
L 84.78575 74.934986 
L 85.516 74.934986 
L 86.24625 74.934986 
L 86.9765 74.934986 
L 87.70675 74.934986 
L 88.437 74.934986 
L 89.16725 74.934986 
L 89.8975 74.934986 
L 90.62775 74.934986 
L 91.358 74.934986 
L 92.08825 74.934986 
L 92.8185 74.934986 
L 93.54875 74.934986 
L 94.279 74.934986 
L 95.00925 74.934986 
L 95.7395 74.934986 
L 96.46975 74.934986 
L 97.2 74.934986 
" clip-path="url(#p38c74563ae)" style="fill: none; stroke-dasharray: 5.55,2.4; stroke-dashoffset: 0; stroke: #000000; stroke-width: 1.5"/>
   </g>
   <g id="patch_6">
    <path d="M 24.175 75.951159 
L 24.175 53.595365 
" style="fill: none; stroke: #000000; stroke-width: 0.8; stroke-linejoin: miter; stroke-linecap: square"/>
   </g>
   <g id="patch_7">
    <path d="M 24.175 75.951159 
L 97.2 75.951159 
" style="fill: none; stroke: #000000; stroke-width: 0.8; stroke-linejoin: miter; stroke-linecap: square"/>
   </g>
  </g>
  <g id="axes_3">
   <g id="patch_8">
    <path d="M 24.175 116.2 
L 97.2 116.2 
L 97.2 93.844207 
L 24.175 93.844207 
z
" style="fill: #ffffff"/>
   </g>
   <g id="matplotlib.axis_5">
    <g id="xtick_5">
     <g id="line2d_13">
      <g>
       <use xlink:href="#m6066cec8db" x="42.43125" y="116.2" style="stroke: #000000; stroke-width: 0.8"/>
      </g>
     </g>
     <g id="text_5">
      <!-- 0 -->
      <g transform="translate(39.25 130.798438) scale(0.1 -0.1)">
       <use xlink:href="#DejaVuSans-30"/>
      </g>
     </g>
    </g>
    <g id="xtick_6">
     <g id="line2d_14">
      <g>
       <use xlink:href="#m6066cec8db" x="78.94375" y="116.2" style="stroke: #000000; stroke-width: 0.8"/>
      </g>
     </g>
     <g id="text_6">
      <!-- 1 -->
      <g transform="translate(75.7625 130.798438) scale(0.1 -0.1)">
       <use xlink:href="#DejaVuSans-31"/>
      </g>
     </g>
    </g>
   </g>
   <g id="matplotlib.axis_6">
    <g id="ytick_5">
     <g id="line2d_15">
      <g>
       <use xlink:href="#m47a262e7f7" x="24.175" y="115.183828" style="stroke: #000000; stroke-width: 0.8"/>
      </g>
     </g>
     <g id="text_7">
      <!-- 0 -->
      <g transform="translate(10.8125 118.983046) scale(0.1 -0.1)">
       <use xlink:href="#DejaVuSans-30"/>
      </g>
     </g>
    </g>
    <g id="ytick_6">
     <g id="line2d_16">
      <g>
       <use xlink:href="#m47a262e7f7" x="24.175" y="94.860379" style="stroke: #000000; stroke-width: 0.8"/>
      </g>
     </g>
     <g id="text_8">
      <!-- 1 -->
      <g transform="translate(10.8125 98.659598) scale(0.1 -0.1)">
       <use xlink:href="#DejaVuSans-31"/>
      </g>
     </g>
    </g>
   </g>
   <g id="line2d_17">
    <path d="M 24.175 94.845392 
L 24.90525 94.846834 
L 25.6355 94.84827 
L 26.36575 94.849722 
L 27.096 94.851165 
L 27.82625 94.852617 
L 28.5565 94.85407 
L 29.28675 94.855531 
L 30.017 94.85699 
L 30.74725 94.858463 
L 31.4775 94.859938 
L 32.20775 94.861417 
L 32.938 94.862906 
L 33.66825 94.864392 
L 34.3985 94.86589 
L 35.12875 94.867376 
L 35.859 94.868859 
L 36.58925 94.87032 
L 37.3195 94.871753 
L 38.04975 94.87313 
L 38.78 94.874432 
L 39.51025 94.875634 
L 40.2405 94.876689 
L 40.97075 94.877548 
L 41.701 94.87814 
L 42.43125 94.878392 
L 43.1615 94.878208 
L 43.89175 94.877485 
L 44.622 94.876128 
L 45.35225 94.874024 
L 46.0825 94.87112 
L 46.81275 94.867322 
L 47.543 94.862315 
L 48.27325 94.855284 
L 49.0035 94.845838 
L 49.73375 94.836319 
L 50.464 94.832304 
L 51.19425 94.899492 
L 51.9245 95.342483 
L 52.65475 96.414282 
L 53.385 97.97702 
L 54.11525 99.74249 
L 54.8455 101.443751 
L 55.57575 102.927583 
L 56.306 104.179261 
L 57.03625 105.266505 
L 57.7665 106.264198 
L 58.49675 107.193975 
L 59.227 107.998433 
L 59.95725 108.587957 
L 60.6875 108.93323 
L 61.41775 109.089071 
L 62.148 109.135853 
L 62.87825 109.131877 
L 63.6085 109.107681 
L 64.33875 109.076155 
L 65.069 109.041291 
L 65.79925 109.003945 
L 66.5295 108.971809 
L 67.25975 108.982692 
L 67.99 109.012127 
L 68.72025 109.008394 
L 69.4505 109.004119 
L 70.18075 109.004635 
L 70.911 109.014665 
L 71.64125 109.064766 
L 72.3715 109.180065 
L 73.10175 108.938952 
L 73.832 113.274959 
L 74.56225 113.16072 
L 75.2925 113.187096 
L 76.02275 113.187606 
L 76.753 113.182492 
L 77.48325 113.17493 
L 78.2135 113.167535 
L 78.94375 113.161815 
L 79.674 113.158051 
L 80.40425 113.155898 
L 81.1345 113.154886 
L 81.86475 113.154597 
L 82.595 113.154716 
L 83.32525 113.155051 
L 84.0555 113.155473 
L 84.78575 113.155919 
L 85.516 113.15634 
L 86.24625 113.156731 
L 86.9765 113.157069 
L 87.70675 113.157367 
L 88.437 113.157613 
L 89.16725 113.157807 
L 89.8975 113.157964 
L 90.62775 113.15808 
L 91.358 113.158154 
L 92.08825 113.158195 
L 92.8185 113.158202 
L 93.54875 113.158173 
L 94.279 113.158123 
L 95.00925 113.158044 
L 95.7395 113.157949 
L 96.46975 113.157826 
L 97.2 113.157693 
" clip-path="url(#pa0029e144d)" style="fill: none; stroke: #1f77b4; stroke-width: 3; stroke-linecap: square"/>
   </g>
   <g id="line2d_18">
    <path d="M 24.175 94.860379 
L 24.90525 94.860379 
L 25.6355 94.860379 
L 26.36575 94.860379 
L 27.096 94.860379 
L 27.82625 94.860379 
L 28.5565 94.860379 
L 29.28675 94.860379 
L 30.017 94.860379 
L 30.74725 94.860379 
L 31.4775 94.860379 
L 32.20775 94.860379 
L 32.938 94.860379 
L 33.66825 94.860379 
L 34.3985 94.860379 
L 35.12875 94.860379 
L 35.859 94.860379 
L 36.58925 94.860379 
L 37.3195 94.860379 
L 38.04975 94.860379 
L 38.78 94.860379 
L 39.51025 94.860379 
L 40.2405 94.860379 
L 40.97075 94.860379 
L 41.701 94.860379 
L 42.43125 94.860379 
L 43.1615 94.860379 
L 43.89175 94.860379 
L 44.622 94.860379 
L 45.35225 94.860379 
L 46.0825 94.860379 
L 46.81275 94.860379 
L 47.543 94.860379 
L 48.27325 94.860379 
L 49.0035 94.860379 
L 49.73375 94.860379 
L 50.464 94.860379 
L 51.19425 94.860379 
L 51.9245 94.860379 
L 52.65475 96.470451 
L 53.385 98.259537 
L 54.11525 99.899963 
L 54.8455 101.40217 
L 55.57575 102.776003 
L 56.306 104.030736 
L 57.03625 105.175101 
L 57.7665 106.217311 
L 58.49675 107.165079 
L 59.227 108.025649 
L 59.95725 108.805811 
L 60.6875 109.023177 
L 61.41775 109.023177 
L 62.148 109.023177 
L 62.87825 109.023177 
L 63.6085 109.023177 
L 64.33875 109.023177 
L 65.069 109.023177 
L 65.79925 109.023177 
L 66.5295 109.023177 
L 67.25975 109.023177 
L 67.99 109.023177 
L 68.72025 109.023177 
L 69.4505 109.023177 
L 70.18075 109.023177 
L 70.911 109.023177 
L 71.64125 109.023177 
L 72.3715 109.023177 
L 73.10175 109.023177 
L 73.832 113.151483 
L 74.56225 113.151483 
L 75.2925 113.151483 
L 76.02275 113.151483 
L 76.753 113.151483 
L 77.48325 113.151483 
L 78.2135 113.151483 
L 78.94375 113.151483 
L 79.674 113.151483 
L 80.40425 113.151483 
L 81.1345 113.151483 
L 81.86475 113.151483 
L 82.595 113.151483 
L 83.32525 113.151483 
L 84.0555 113.151483 
L 84.78575 113.151483 
L 85.516 113.151483 
L 86.24625 113.151483 
L 86.9765 113.151483 
L 87.70675 113.151483 
L 88.437 113.151483 
L 89.16725 113.151483 
L 89.8975 113.151483 
L 90.62775 113.151483 
L 91.358 113.151483 
L 92.08825 113.151483 
L 92.8185 113.151483 
L 93.54875 113.151483 
L 94.279 113.151483 
L 95.00925 113.151483 
L 95.7395 113.151483 
L 96.46975 113.151483 
L 97.2 113.151483 
" clip-path="url(#pa0029e144d)" style="fill: none; stroke-dasharray: 5.55,2.4; stroke-dashoffset: 0; stroke: #000000; stroke-width: 1.5"/>
   </g>
   <g id="patch_9">
    <path d="M 24.175 116.2 
L 24.175 93.844207 
" style="fill: none; stroke: #000000; stroke-width: 0.8; stroke-linejoin: miter; stroke-linecap: square"/>
   </g>
   <g id="patch_10">
    <path d="M 24.175 116.2 
L 97.2 116.2 
" style="fill: none; stroke: #000000; stroke-width: 0.8; stroke-linejoin: miter; stroke-linecap: square"/>
   </g>
  </g>
 </g>
 <defs>
  <clipPath id="pe1e86e5834">
   <rect x="24.175" y="13.346524" width="73.025" height="22.355793"/>
  </clipPath>
  <clipPath id="p38c74563ae">
   <rect x="24.175" y="53.595365" width="73.025" height="22.355793"/>
  </clipPath>
  <clipPath id="pa0029e144d">
   <rect x="24.175" y="93.844207" width="73.025" height="22.355793"/>
  </clipPath>
 </defs>
</svg>
