<?xml version="1.0" encoding="utf-8" standalone="no"?>
<!DOCTYPE svg PUBLIC "-//W3C//DTD SVG 1.1//EN"
  "http://www.w3.org/Graphics/SVG/1.1/DTD/svg11.dtd">
<svg xmlns:xlink="http://www.w3.org/1999/xlink" width="108pt" height="144pt" viewBox="0 0 108 144" xmlns="http://www.w3.org/2000/svg" version="1.1">
 <metadata>
  <rdf:RDF xmlns:dc="http://purl.org/dc/elements/1.1/" xmlns:cc="http://creativecommons.org/ns#" xmlns:rdf="http://www.w3.org/1999/02/22-rdf-syntax-ns#">
   <cc:Work>
    <dc:type rdf:resource="http://purl.org/dc/dcmitype/StillImage"/>
    <dc:date>2024-03-15T16:02:05.892547</dc:date>
    <dc:format>image/svg+xml</dc:format>
    <dc:creator>
     <cc:Agent>
      <dc:title>Matplotlib v3.7.2, https://matplotlib.org/</dc:title>
     </cc:Agent>
    </dc:creator>
   </cc:Work>
  </rdf:RDF>
 </metadata>
 <defs>
  <style type="text/css">*{stroke-linejoin: round; stroke-linecap: butt}</style>
 </defs>
 <g id="figure_1">
  <g id="patch_1">
   <path d="M 0 144 
L 108 144 
L 108 0 
L 0 0 
z
" style="fill: #ffffff"/>
  </g>
  <g id="axes_1">
   <g id="patch_2">
    <path d="M 24.175 35.702317 
L 97.2 35.702317 
L 97.2 13.346524 
L 24.175 13.346524 
z
" style="fill: #ffffff"/>
   </g>
   <g id="matplotlib.axis_1">
    <g id="xtick_1">
     <g id="line2d_1">
      <defs>
       <path id="md59452bffc" d="M 0 0 
L 0 3.5 
" style="stroke: #000000; stroke-width: 0.8"/>
      </defs>
      <g>
       <use xlink:href="#md59452bffc" x="42.43125" y="35.702317" style="stroke: #000000; stroke-width: 0.8"/>
      </g>
     </g>
    </g>
    <g id="xtick_2">
     <g id="line2d_2">
      <g>
       <use xlink:href="#md59452bffc" x="78.94375" y="35.702317" style="stroke: #000000; stroke-width: 0.8"/>
      </g>
     </g>
    </g>
   </g>
   <g id="matplotlib.axis_2">
    <g id="ytick_1">
     <g id="line2d_3">
      <defs>
       <path id="m0adb20ce07" d="M 0 0 
L -3.5 0 
" style="stroke: #000000; stroke-width: 0.8"/>
      </defs>
      <g>
       <use xlink:href="#m0adb20ce07" x="24.175" y="34.686145" style="stroke: #000000; stroke-width: 0.8"/>
      </g>
     </g>
     <g id="text_1">
      <!-- 0 -->
      <g transform="translate(10.8125 38.485364) scale(0.1 -0.1)">
       <defs>
        <path id="DejaVuSans-30" d="M 2034 4250 
Q 1547 4250 1301 3770 
Q 1056 3291 1056 2328 
Q 1056 1369 1301 889 
Q 1547 409 2034 409 
Q 2525 409 2770 889 
Q 3016 1369 3016 2328 
Q 3016 3291 2770 3770 
Q 2525 4250 2034 4250 
z
M 2034 4750 
Q 2819 4750 3233 4129 
Q 3647 3509 3647 2328 
Q 3647 1150 3233 529 
Q 2819 -91 2034 -91 
Q 1250 -91 836 529 
Q 422 1150 422 2328 
Q 422 3509 836 4129 
Q 1250 4750 2034 4750 
z
" transform="scale(0.015625)"/>
       </defs>
       <use xlink:href="#DejaVuSans-30"/>
      </g>
     </g>
    </g>
    <g id="ytick_2">
     <g id="line2d_4">
      <g>
       <use xlink:href="#m0adb20ce07" x="24.175" y="14.362696" style="stroke: #000000; stroke-width: 0.8"/>
      </g>
     </g>
     <g id="text_2">
      <!-- 1 -->
      <g transform="translate(10.8125 18.161915) scale(0.1 -0.1)">
       <defs>
        <path id="DejaVuSans-31" d="M 794 531 
L 1825 531 
L 1825 4091 
L 703 3866 
L 703 4441 
L 1819 4666 
L 2450 4666 
L 2450 531 
L 3481 531 
L 3481 0 
L 794 0 
L 794 531 
z
" transform="scale(0.015625)"/>
       </defs>
       <use xlink:href="#DejaVuSans-31"/>
      </g>
     </g>
    </g>
   </g>
   <g id="line2d_5">
    <path d="M 24.175 14.330004 
L 24.90525 14.330818 
L 25.6355 14.331603 
L 26.36575 14.332354 
L 27.096 14.333071 
L 27.82625 14.333754 
L 28.5565 14.334416 
L 29.28675 14.335046 
L 30.017 14.335654 
L 30.74725 14.336245 
L 31.4775 14.336822 
L 32.20775 14.337393 
L 32.938 14.33796 
L 33.66825 14.338542 
L 34.3985 14.339143 
L 35.12875 14.339782 
L 35.859 14.340461 
L 36.58925 14.341195 
L 37.3195 14.342016 
L 38.04975 14.342908 
L 38.78 14.343911 
L 39.51025 14.34502 
L 40.2405 14.346236 
L 40.97075 14.347569 
L 41.701 14.349008 
L 42.43125 14.350513 
L 43.1615 14.352051 
L 43.89175 14.353548 
L 44.622 14.354905 
L 45.35225 14.35599 
L 46.0825 14.35662 
L 46.81275 14.356581 
L 47.543 14.355605 
L 48.27325 14.353456 
L 49.0035 14.349972 
L 49.73375 14.345415 
L 50.464 14.341015 
L 51.19425 14.339097 
L 51.9245 14.339431 
L 52.65475 14.336696 
L 53.385 14.340136 
L 54.11525 14.657211 
L 54.8455 15.881826 
L 55.57575 17.594008 
L 56.306 19.31364 
L 57.03625 20.874884 
L 57.7665 22.266755 
L 58.49675 23.521091 
L 59.227 24.612411 
L 59.95725 25.441886 
L 60.6875 25.94154 
L 61.41775 26.158188 
L 62.148 26.196918 
L 62.87825 26.137393 
L 63.6085 26.016257 
L 64.33875 25.86954 
L 65.069 26.049357 
L 65.79925 27.779081 
L 66.5295 29.189223 
L 67.25975 29.317727 
L 67.99 29.26919 
L 68.72025 29.261258 
L 69.4505 29.288545 
L 70.18075 29.034559 
L 70.911 32.155133 
L 71.64125 32.147034 
L 72.3715 32.152551 
L 73.10175 32.157677 
L 73.832 32.162566 
L 74.56225 32.167887 
L 75.2925 32.17397 
L 76.02275 32.180291 
L 76.753 32.186246 
L 77.48325 32.191446 
L 78.2135 32.195777 
L 78.94375 32.199261 
L 79.674 32.202004 
L 80.40425 32.204146 
L 81.1345 32.205793 
L 81.86475 32.207063 
L 82.595 32.208027 
L 83.32525 32.208785 
L 84.0555 32.209359 
L 84.78575 32.209798 
L 85.516 32.21012 
L 86.24625 32.210355 
L 86.9765 32.210515 
L 87.70675 32.210614 
L 88.437 32.210658 
L 89.16725 32.210653 
L 89.8975 32.210614 
L 90.62775 32.210546 
L 91.358 32.210435 
L 92.08825 32.210314 
L 92.8185 32.210168 
L 93.54875 32.209996 
L 94.279 32.209815 
L 95.00925 32.209631 
L 95.7395 32.209432 
L 96.46975 32.209241 
L 97.2 32.20904 
" clip-path="url(#pcc5871ab26)" style="fill: none; stroke: #1f77b4; stroke-width: 3; stroke-linecap: square"/>
   </g>
   <g id="line2d_6">
    <path d="M 24.175 14.362696 
L 24.90525 14.362696 
L 25.6355 14.362696 
L 26.36575 14.362696 
L 27.096 14.362696 
L 27.82625 14.362696 
L 28.5565 14.362696 
L 29.28675 14.362696 
L 30.017 14.362696 
L 30.74725 14.362696 
L 31.4775 14.362696 
L 32.20775 14.362696 
L 32.938 14.362696 
L 33.66825 14.362696 
L 34.3985 14.362696 
L 35.12875 14.362696 
L 35.859 14.362696 
L 36.58925 14.362696 
L 37.3195 14.362696 
L 38.04975 14.362696 
L 38.78 14.362696 
L 39.51025 14.362696 
L 40.2405 14.362696 
L 40.97075 14.362696 
L 41.701 14.362696 
L 42.43125 14.362696 
L 43.1615 14.362696 
L 43.89175 14.362696 
L 44.622 14.362696 
L 45.35225 14.362696 
L 46.0825 14.362696 
L 46.81275 14.362696 
L 47.543 14.362696 
L 48.27325 14.362696 
L 49.0035 14.362696 
L 49.73375 14.362696 
L 50.464 14.362696 
L 51.19425 14.362696 
L 51.9245 14.362696 
L 52.65475 14.362696 
L 53.385 14.362696 
L 54.11525 14.362696 
L 54.8455 15.977065 
L 55.57575 17.696361 
L 56.306 19.286869 
L 57.03625 20.755966 
L 57.7665 22.110738 
L 58.49675 23.357992 
L 59.227 24.504259 
L 59.95725 25.555798 
L 60.6875 26.021864 
L 61.41775 26.021864 
L 62.148 26.021864 
L 62.87825 26.021864 
L 63.6085 26.021864 
L 64.33875 26.021864 
L 65.069 26.021864 
L 65.79925 29.288771 
L 66.5295 29.288771 
L 67.25975 29.288771 
L 67.99 29.288771 
L 68.72025 29.288771 
L 69.4505 29.288771 
L 70.18075 29.288771 
L 70.911 32.145714 
L 71.64125 32.145714 
L 72.3715 32.145714 
L 73.10175 32.145714 
L 73.832 32.145714 
L 74.56225 32.145714 
L 75.2925 32.145714 
L 76.02275 32.145714 
L 76.753 32.145714 
L 77.48325 32.145714 
L 78.2135 32.145714 
L 78.94375 32.145714 
L 79.674 32.145714 
L 80.40425 32.145714 
L 81.1345 32.145714 
L 81.86475 32.145714 
L 82.595 32.145714 
L 83.32525 32.145714 
L 84.0555 32.145714 
L 84.78575 32.145714 
L 85.516 32.145714 
L 86.24625 32.145714 
L 86.9765 32.145714 
L 87.70675 32.145714 
L 88.437 32.145714 
L 89.16725 32.145714 
L 89.8975 32.145714 
L 90.62775 32.145714 
L 91.358 32.145714 
L 92.08825 32.145714 
L 92.8185 32.145714 
L 93.54875 32.145714 
L 94.279 32.145714 
L 95.00925 32.145714 
L 95.7395 32.145714 
L 96.46975 32.145714 
L 97.2 32.145714 
" clip-path="url(#pcc5871ab26)" style="fill: none; stroke-dasharray: 5.55,2.4; stroke-dashoffset: 0; stroke: #000000; stroke-width: 1.5"/>
   </g>
   <g id="patch_3">
    <path d="M 24.175 35.702317 
L 24.175 13.346524 
" style="fill: none; stroke: #000000; stroke-width: 0.8; stroke-linejoin: miter; stroke-linecap: square"/>
   </g>
   <g id="patch_4">
    <path d="M 24.175 35.702317 
L 97.2 35.702317 
" style="fill: none; stroke: #000000; stroke-width: 0.8; stroke-linejoin: miter; stroke-linecap: square"/>
   </g>
  </g>
  <g id="axes_2">
   <g id="patch_5">
    <path d="M 24.175 75.951159 
L 97.2 75.951159 
L 97.2 53.595365 
L 24.175 53.595365 
z
" style="fill: #ffffff"/>
   </g>
   <g id="matplotlib.axis_3">
    <g id="xtick_3">
     <g id="line2d_7">
      <g>
       <use xlink:href="#md59452bffc" x="42.43125" y="75.951159" style="stroke: #000000; stroke-width: 0.8"/>
      </g>
     </g>
    </g>
    <g id="xtick_4">
     <g id="line2d_8">
      <g>
       <use xlink:href="#md59452bffc" x="78.94375" y="75.951159" style="stroke: #000000; stroke-width: 0.8"/>
      </g>
     </g>
    </g>
   </g>
   <g id="matplotlib.axis_4">
    <g id="ytick_3">
     <g id="line2d_9">
      <g>
       <use xlink:href="#m0adb20ce07" x="24.175" y="74.934986" style="stroke: #000000; stroke-width: 0.8"/>
      </g>
     </g>
     <g id="text_3">
      <!-- 0 -->
      <g transform="translate(10.8125 78.734205) scale(0.1 -0.1)">
       <use xlink:href="#DejaVuSans-30"/>
      </g>
     </g>
    </g>
    <g id="ytick_4">
     <g id="line2d_10">
      <g>
       <use xlink:href="#m0adb20ce07" x="24.175" y="54.611538" style="stroke: #000000; stroke-width: 0.8"/>
      </g>
     </g>
     <g id="text_4">
      <!-- 1 -->
      <g transform="translate(10.8125 58.410757) scale(0.1 -0.1)">
       <use xlink:href="#DejaVuSans-31"/>
      </g>
     </g>
    </g>
   </g>
   <g id="line2d_11">
    <path d="M 24.175 74.952835 
L 24.90525 74.952415 
L 25.6355 74.951999 
L 26.36575 74.951636 
L 27.096 74.951257 
L 27.82625 74.950915 
L 28.5565 74.950592 
L 29.28675 74.95028 
L 30.017 74.949969 
L 30.74725 74.949694 
L 31.4775 74.94942 
L 32.20775 74.949159 
L 32.938 74.94888 
L 33.66825 74.948615 
L 34.3985 74.948345 
L 35.12875 74.94805 
L 35.859 74.947755 
L 36.58925 74.947443 
L 37.3195 74.947096 
L 38.04975 74.946697 
L 38.78 74.946296 
L 39.51025 74.945859 
L 40.2405 74.945389 
L 40.97075 74.944902 
L 41.701 74.944444 
L 42.43125 74.944039 
L 43.1615 74.943744 
L 43.89175 74.943658 
L 44.622 74.943862 
L 45.35225 74.944543 
L 46.0825 74.945921 
L 46.81275 74.948204 
L 47.543 74.951773 
L 48.27325 74.956976 
L 49.0035 74.964096 
L 49.73375 74.97323 
L 50.464 74.983668 
L 51.19425 74.993781 
L 51.9245 75.002822 
L 52.65475 75.012048 
L 53.385 75.009606 
L 54.11525 74.642309 
L 54.8455 73.192542 
L 55.57575 71.011822 
L 56.306 68.589657 
L 57.03625 66.152511 
L 57.7665 63.769371 
L 58.49675 61.447797 
L 59.227 59.296238 
L 59.95725 57.577812 
L 60.6875 56.496268 
L 61.41775 55.985665 
L 62.148 55.823082 
L 62.87825 55.825633 
L 63.6085 55.899846 
L 64.33875 56.006675 
L 65.069 56.100028 
L 65.79925 56.058585 
L 66.5295 56.003259 
L 67.25975 56.00291 
L 67.99 55.988286 
L 68.72025 55.969442 
L 69.4505 55.932648 
L 70.18075 55.469831 
L 70.911 74.69086 
L 71.64125 74.649012 
L 72.3715 74.851562 
L 73.10175 74.9104 
L 73.832 74.927485 
L 74.56225 74.933186 
L 75.2925 74.935542 
L 76.02275 74.936654 
L 76.753 74.937035 
L 77.48325 74.936892 
L 78.2135 74.936416 
L 78.94375 74.935748 
L 79.674 74.934981 
L 80.40425 74.934228 
L 81.1345 74.933473 
L 81.86475 74.932778 
L 82.595 74.932147 
L 83.32525 74.93161 
L 84.0555 74.931155 
L 84.78575 74.930768 
L 85.516 74.930497 
L 86.24625 74.930279 
L 86.9765 74.930161 
L 87.70675 74.930103 
L 88.437 74.930141 
L 89.16725 74.930207 
L 89.8975 74.930374 
L 90.62775 74.930591 
L 91.358 74.93083 
L 92.08825 74.931132 
L 92.8185 74.931451 
L 93.54875 74.931811 
L 94.279 74.932184 
L 95.00925 74.932579 
L 95.7395 74.932971 
L 96.46975 74.933365 
L 97.2 74.933729 
" clip-path="url(#p471fb7bd26)" style="fill: none; stroke: #1f77b4; stroke-width: 3; stroke-linecap: square"/>
   </g>
   <g id="line2d_12">
    <path d="M 24.175 74.934986 
L 24.90525 74.934986 
L 25.6355 74.934986 
L 26.36575 74.934986 
L 27.096 74.934986 
L 27.82625 74.934986 
L 28.5565 74.934986 
L 29.28675 74.934986 
L 30.017 74.934986 
L 30.74725 74.934986 
L 31.4775 74.934986 
L 32.20775 74.934986 
L 32.938 74.934986 
L 33.66825 74.934986 
L 34.3985 74.934986 
L 35.12875 74.934986 
L 35.859 74.934986 
L 36.58925 74.934986 
L 37.3195 74.934986 
L 38.04975 74.934986 
L 38.78 74.934986 
L 39.51025 74.934986 
L 40.2405 74.934986 
L 40.97075 74.934986 
L 41.701 74.934986 
L 42.43125 74.934986 
L 43.1615 74.934986 
L 43.89175 74.934986 
L 44.622 74.934986 
L 45.35225 74.934986 
L 46.0825 74.934986 
L 46.81275 74.934986 
L 47.543 74.934986 
L 48.27325 74.934986 
L 49.0035 74.934986 
L 49.73375 74.934986 
L 50.464 74.934986 
L 51.19425 74.934986 
L 51.9245 74.934986 
L 52.65475 74.934986 
L 53.385 74.934986 
L 54.11525 74.934986 
L 54.8455 72.961083 
L 55.57575 70.702922 
L 56.306 68.444761 
L 57.03625 66.186601 
L 57.7665 63.92844 
L 58.49675 61.670279 
L 59.227 59.412118 
L 59.95725 57.153957 
L 60.6875 56.085951 
L 61.41775 56.085951 
L 62.148 56.085951 
L 62.87825 56.085951 
L 63.6085 56.085951 
L 64.33875 56.085951 
L 65.069 56.085951 
L 65.79925 56.085951 
L 66.5295 56.085951 
L 67.25975 56.085951 
L 67.99 56.085951 
L 68.72025 56.085951 
L 69.4505 56.085951 
L 70.18075 56.085951 
L 70.911 74.934986 
L 71.64125 74.934986 
L 72.3715 74.934986 
L 73.10175 74.934986 
L 73.832 74.934986 
L 74.56225 74.934986 
L 75.2925 74.934986 
L 76.02275 74.934986 
L 76.753 74.934986 
L 77.48325 74.934986 
L 78.2135 74.934986 
L 78.94375 74.934986 
L 79.674 74.934986 
L 80.40425 74.934986 
L 81.1345 74.934986 
L 81.86475 74.934986 
L 82.595 74.934986 
L 83.32525 74.934986 
L 84.0555 74.934986 
L 84.78575 74.934986 
L 85.516 74.934986 
L 86.24625 74.934986 
L 86.9765 74.934986 
L 87.70675 74.934986 
L 88.437 74.934986 
L 89.16725 74.934986 
L 89.8975 74.934986 
L 90.62775 74.934986 
L 91.358 74.934986 
L 92.08825 74.934986 
L 92.8185 74.934986 
L 93.54875 74.934986 
L 94.279 74.934986 
L 95.00925 74.934986 
L 95.7395 74.934986 
L 96.46975 74.934986 
L 97.2 74.934986 
" clip-path="url(#p471fb7bd26)" style="fill: none; stroke-dasharray: 5.55,2.4; stroke-dashoffset: 0; stroke: #000000; stroke-width: 1.5"/>
   </g>
   <g id="patch_6">
    <path d="M 24.175 75.951159 
L 24.175 53.595365 
" style="fill: none; stroke: #000000; stroke-width: 0.8; stroke-linejoin: miter; stroke-linecap: square"/>
   </g>
   <g id="patch_7">
    <path d="M 24.175 75.951159 
L 97.2 75.951159 
" style="fill: none; stroke: #000000; stroke-width: 0.8; stroke-linejoin: miter; stroke-linecap: square"/>
   </g>
  </g>
  <g id="axes_3">
   <g id="patch_8">
    <path d="M 24.175 116.2 
L 97.2 116.2 
L 97.2 93.844207 
L 24.175 93.844207 
z
" style="fill: #ffffff"/>
   </g>
   <g id="matplotlib.axis_5">
    <g id="xtick_5">
     <g id="line2d_13">
      <g>
       <use xlink:href="#md59452bffc" x="42.43125" y="116.2" style="stroke: #000000; stroke-width: 0.8"/>
      </g>
     </g>
     <g id="text_5">
      <!-- 0 -->
      <g transform="translate(39.25 130.798438) scale(0.1 -0.1)">
       <use xlink:href="#DejaVuSans-30"/>
      </g>
     </g>
    </g>
    <g id="xtick_6">
     <g id="line2d_14">
      <g>
       <use xlink:href="#md59452bffc" x="78.94375" y="116.2" style="stroke: #000000; stroke-width: 0.8"/>
      </g>
     </g>
     <g id="text_6">
      <!-- 1 -->
      <g transform="translate(75.7625 130.798438) scale(0.1 -0.1)">
       <use xlink:href="#DejaVuSans-31"/>
      </g>
     </g>
    </g>
   </g>
   <g id="matplotlib.axis_6">
    <g id="ytick_5">
     <g id="line2d_15">
      <g>
       <use xlink:href="#m0adb20ce07" x="24.175" y="115.183828" style="stroke: #000000; stroke-width: 0.8"/>
      </g>
     </g>
     <g id="text_7">
      <!-- 0 -->
      <g transform="translate(10.8125 118.983046) scale(0.1 -0.1)">
       <use xlink:href="#DejaVuSans-30"/>
      </g>
     </g>
    </g>
    <g id="ytick_6">
     <g id="line2d_16">
      <g>
       <use xlink:href="#m0adb20ce07" x="24.175" y="94.860379" style="stroke: #000000; stroke-width: 0.8"/>
      </g>
     </g>
     <g id="text_8">
      <!-- 1 -->
      <g transform="translate(10.8125 98.659598) scale(0.1 -0.1)">
       <use xlink:href="#DejaVuSans-31"/>
      </g>
     </g>
    </g>
   </g>
   <g id="line2d_17">
    <path d="M 24.175 94.832334 
L 24.90525 94.833201 
L 25.6355 94.834068 
L 26.36575 94.834933 
L 27.096 94.835796 
L 27.82625 94.836653 
L 28.5565 94.837518 
L 29.28675 94.838388 
L 30.017 94.839263 
L 30.74725 94.840157 
L 31.4775 94.84107 
L 32.20775 94.842017 
L 32.938 94.842996 
L 33.66825 94.844023 
L 34.3985 94.845109 
L 35.12875 94.846267 
L 35.859 94.8475 
L 36.58925 94.84883 
L 37.3195 94.850284 
L 38.04975 94.851844 
L 38.78 94.853545 
L 39.51025 94.855398 
L 40.2405 94.857399 
L 40.97075 94.859546 
L 41.701 94.861846 
L 42.43125 94.864242 
L 43.1615 94.866713 
L 43.89175 94.869186 
L 44.622 94.871554 
L 45.35225 94.873689 
L 46.0825 94.8754 
L 46.81275 94.876453 
L 47.543 94.876561 
L 48.27325 94.875401 
L 49.0035 94.872652 
L 49.73375 94.86807 
L 50.464 94.861681 
L 51.19425 94.853443 
L 51.9245 94.841862 
L 52.65475 94.828246 
L 53.385 94.833278 
L 54.11525 95.256092 
L 54.8455 96.881817 
L 55.57575 99.131967 
L 56.306 101.338864 
L 57.03625 103.274071 
L 57.7665 104.927191 
L 58.49675 106.345822 
L 59.227 107.515649 
L 59.95725 108.359527 
L 60.6875 108.850487 
L 61.41775 109.069256 
L 62.148 109.133344 
L 62.87825 109.125687 
L 63.6085 109.086384 
L 64.33875 109.030748 
L 65.069 108.976109 
L 65.79925 108.979112 
L 66.5295 108.983217 
L 67.25975 108.964051 
L 67.99 108.960201 
L 68.72025 109.003384 
L 69.4505 109.034408 
L 70.18075 108.820436 
L 70.911 113.185854 
L 71.64125 113.172248 
L 72.3715 113.173996 
L 73.10175 113.176083 
L 73.832 113.17309 
L 74.56225 113.167608 
L 75.2925 113.162629 
L 76.02275 113.159228 
L 76.753 113.157361 
L 77.48325 113.156611 
L 78.2135 113.156572 
L 78.94375 113.156935 
L 79.674 113.157487 
L 80.40425 113.158115 
L 81.1345 113.158735 
L 81.86475 113.159325 
L 82.595 113.159844 
L 83.32525 113.160307 
L 84.0555 113.160697 
L 84.78575 113.161015 
L 85.516 113.161255 
L 86.24625 113.161437 
L 86.9765 113.161554 
L 87.70675 113.161614 
L 88.437 113.161616 
L 89.16725 113.161565 
L 89.8975 113.161472 
L 90.62775 113.161336 
L 91.358 113.161168 
L 92.08825 113.160962 
L 92.8185 113.160736 
L 93.54875 113.160484 
L 94.279 113.16022 
L 95.00925 113.159945 
L 95.7395 113.159654 
L 96.46975 113.159375 
L 97.2 113.159092 
" clip-path="url(#pda0e896e8e)" style="fill: none; stroke: #1f77b4; stroke-width: 3; stroke-linecap: square"/>
   </g>
   <g id="line2d_18">
    <path d="M 24.175 94.860379 
L 24.90525 94.860379 
L 25.6355 94.860379 
L 26.36575 94.860379 
L 27.096 94.860379 
L 27.82625 94.860379 
L 28.5565 94.860379 
L 29.28675 94.860379 
L 30.017 94.860379 
L 30.74725 94.860379 
L 31.4775 94.860379 
L 32.20775 94.860379 
L 32.938 94.860379 
L 33.66825 94.860379 
L 34.3985 94.860379 
L 35.12875 94.860379 
L 35.859 94.860379 
L 36.58925 94.860379 
L 37.3195 94.860379 
L 38.04975 94.860379 
L 38.78 94.860379 
L 39.51025 94.860379 
L 40.2405 94.860379 
L 40.97075 94.860379 
L 41.701 94.860379 
L 42.43125 94.860379 
L 43.1615 94.860379 
L 43.89175 94.860379 
L 44.622 94.860379 
L 45.35225 94.860379 
L 46.0825 94.860379 
L 46.81275 94.860379 
L 47.543 94.860379 
L 48.27325 94.860379 
L 49.0035 94.860379 
L 49.73375 94.860379 
L 50.464 94.860379 
L 51.19425 94.860379 
L 51.9245 94.860379 
L 52.65475 94.860379 
L 53.385 94.860379 
L 54.11525 94.860379 
L 54.8455 97.084 
L 55.57575 99.369015 
L 56.306 101.40217 
L 57.03625 103.207038 
L 57.7665 104.805392 
L 58.49675 106.217311 
L 59.227 107.46128 
L 59.95725 108.55429 
L 60.6875 109.023177 
L 61.41775 109.023177 
L 62.148 109.023177 
L 62.87825 109.023177 
L 63.6085 109.023177 
L 64.33875 109.023177 
L 65.069 109.023177 
L 65.79925 109.023177 
L 66.5295 109.023177 
L 67.25975 109.023177 
L 67.99 109.023177 
L 68.72025 109.023177 
L 69.4505 109.023177 
L 70.18075 109.023177 
L 70.911 113.151483 
L 71.64125 113.151483 
L 72.3715 113.151483 
L 73.10175 113.151483 
L 73.832 113.151483 
L 74.56225 113.151483 
L 75.2925 113.151483 
L 76.02275 113.151483 
L 76.753 113.151483 
L 77.48325 113.151483 
L 78.2135 113.151483 
L 78.94375 113.151483 
L 79.674 113.151483 
L 80.40425 113.151483 
L 81.1345 113.151483 
L 81.86475 113.151483 
L 82.595 113.151483 
L 83.32525 113.151483 
L 84.0555 113.151483 
L 84.78575 113.151483 
L 85.516 113.151483 
L 86.24625 113.151483 
L 86.9765 113.151483 
L 87.70675 113.151483 
L 88.437 113.151483 
L 89.16725 113.151483 
L 89.8975 113.151483 
L 90.62775 113.151483 
L 91.358 113.151483 
L 92.08825 113.151483 
L 92.8185 113.151483 
L 93.54875 113.151483 
L 94.279 113.151483 
L 95.00925 113.151483 
L 95.7395 113.151483 
L 96.46975 113.151483 
L 97.2 113.151483 
" clip-path="url(#pda0e896e8e)" style="fill: none; stroke-dasharray: 5.55,2.4; stroke-dashoffset: 0; stroke: #000000; stroke-width: 1.5"/>
   </g>
   <g id="patch_9">
    <path d="M 24.175 116.2 
L 24.175 93.844207 
" style="fill: none; stroke: #000000; stroke-width: 0.8; stroke-linejoin: miter; stroke-linecap: square"/>
   </g>
   <g id="patch_10">
    <path d="M 24.175 116.2 
L 97.2 116.2 
" style="fill: none; stroke: #000000; stroke-width: 0.8; stroke-linejoin: miter; stroke-linecap: square"/>
   </g>
  </g>
 </g>
 <defs>
  <clipPath id="pcc5871ab26">
   <rect x="24.175" y="13.346524" width="73.025" height="22.355793"/>
  </clipPath>
  <clipPath id="p471fb7bd26">
   <rect x="24.175" y="53.595365" width="73.025" height="22.355793"/>
  </clipPath>
  <clipPath id="pda0e896e8e">
   <rect x="24.175" y="93.844207" width="73.025" height="22.355793"/>
  </clipPath>
 </defs>
</svg>
